<svg width="28" height="32" viewBox="0 0 28 32" fill="none" xmlns="http://www.w3.org/2000/svg">
<rect width="28" height="32" fill="black" fill-opacity="0"/>
<rect width="28" height="32" fill="black" fill-opacity="0"/>
<rect width="7" height="1" fill="black" fill-opacity="0" transform="translate(13 18)"/>
<path d="M19.3 19C19.69 19 20 18.78 20 18.5C20 18.22 19.69 18 19.3 18H13.7C13.31 18 13 18.22 13 18.5C13 18.78 13.31 19 13.7 19H19.3Z" fill="white"/>
<rect width="7" height="1" fill="black" fill-opacity="0" transform="translate(13 12)"/>
<path d="M19.3 13C19.69 13 20 12.78 20 12.5C20 12.22 19.69 12 19.3 12H13.7C13.31 12 13 12.22 13 12.5C13 12.78 13.31 13 13.7 13H19.3Z" fill="white"/>
<rect width="12" height="1" fill="black" fill-opacity="0" transform="translate(11 15)"/>
<path d="M22.33 15H11.67C11.3 15 11 15.22 11 15.5C11 15.78 11.3 16 11.67 16H22.33C22.7 16 23 15.78 23 15.5C23 15.22 22.7 15 22.33 15Z" fill="white"/>
<rect width="12" height="1" fill="black" fill-opacity="0" transform="translate(11 9)"/>
<path d="M22.33 9H11.67C11.3 9 11 9.22 11 9.5C11 9.78 11.3 10 11.67 10H22.33C22.7 10 23 9.78 23 9.5C23 9.22 22.7 9 22.33 9Z" fill="white"/>
<rect width="12" height="1" fill="black" fill-opacity="0" transform="translate(11 21)"/>
<path d="M22.33 21H11.67C11.3 21 11 21.22 11 21.5C11 21.78 11.3 22 11.67 22H22.33C22.7 22 23 21.78 23 21.5C23 21.22 22.7 21 22.33 21Z" fill="white"/>
<rect width="28" height="32" fill="black" fill-opacity="0"/>
<path d="M28 2V30C28 30.5304 27.7893 31.0391 27.4142 31.4142C27.0391 31.7893 26.5304 32 26 32H3.33C2.79957 32 2.29086 31.7893 1.91579 31.4142C1.54071 31.0391 1.33 30.5304 1.33 30V26.67H0.669998C0.492303 26.67 0.321889 26.5994 0.196239 26.4738C0.0705901 26.3481 0 26.1777 0 26C0 25.8223 0.0705901 25.6519 0.196239 25.5262C0.321889 25.4006 0.492303 25.33 0.669998 25.33H1.33V20H0.669998C0.582013 20 0.494889 19.9827 0.413601 19.949C0.332313 19.9153 0.258455 19.866 0.196239 19.8038C0.134024 19.7415 0.0846732 19.6677 0.0510025 19.5864C0.0173318 19.5051 0 19.418 0 19.33C0 18.97 0.299998 18.67 0.669998 18.67H1.33V13.33H0.669998C0.494022 13.33 0.325103 13.2608 0.199738 13.1373C0.0743717 13.0138 0.00262651 12.846 0 12.67C0 12.3 0.299998 12 0.669998 12H1.33V6.67H0.669998C0.492303 6.67 0.321889 6.59941 0.196239 6.47376C0.0705901 6.34811 0 6.1777 0 6C0 5.8223 0.0705901 5.65189 0.196239 5.52624C0.321889 5.40059 0.492303 5.33 0.669998 5.33H1.33V2C1.33 0.9 2.23 0 3.33 0H26C26.5304 0 27.0391 0.210712 27.4142 0.585785C27.7893 0.960858 28 1.46957 28 2ZM26.67 2C26.67 1.63 26.37 1.33 26 1.33H3.33C2.97 1.33 2.67 1.63 2.67 2V5.33H4.12C4.25809 4.94159 4.51284 4.60534 4.84937 4.36726C5.1859 4.12919 5.58777 4.00091 6 4C6.53043 4 7.03914 4.21071 7.41422 4.58578C7.78929 4.96086 8 5.46957 8 6C8 6.53043 7.78929 7.03914 7.41422 7.41422C7.03914 7.78929 6.53043 8 6 8C5.58777 7.99909 5.1859 7.87081 4.84937 7.63274C4.51284 7.39466 4.25809 7.05841 4.12 6.67H2.67V12H4.12C4.27692 11.5549 4.58619 11.1796 4.9931 10.9406C5.40001 10.7015 5.87836 10.6141 6.34354 10.6937C6.80872 10.7733 7.23077 11.0148 7.53504 11.3756C7.83931 11.7363 8.00621 12.1931 8.00621 12.665C8.00621 13.1369 7.83931 13.5937 7.53504 13.9544C7.23077 14.3152 6.80872 14.5567 6.34354 14.6363C5.87836 14.7159 5.40001 14.6285 4.9931 14.3894C4.58619 14.1504 4.27692 13.7751 4.12 13.33H2.67V18.67H4.12C4.27692 18.2249 4.58619 17.8496 4.9931 17.6106C5.40001 17.3715 5.87836 17.2841 6.34354 17.3637C6.80872 17.4433 7.23077 17.6848 7.53504 18.0456C7.83931 18.4063 8.00621 18.8631 8.00621 19.335C8.00621 19.8069 7.83931 20.2637 7.53504 20.6244C7.23077 20.9852 6.80872 21.2267 6.34354 21.3063C5.87836 21.3859 5.40001 21.2985 4.9931 21.0594C4.58619 20.8204 4.27692 20.4451 4.12 20H2.67V25.33H4.12C4.25809 24.9416 4.51284 24.6053 4.84937 24.3673C5.1859 24.1292 5.58777 24.0009 6 24C6.53043 24 7.03914 24.2107 7.41422 24.5858C7.78929 24.9609 8 25.4696 8 26C8 26.5304 7.78929 27.0391 7.41422 27.4142C7.03914 27.7893 6.53043 28 6 28C5.58777 27.9991 5.1859 27.8708 4.84937 27.6327C4.51284 27.3947 4.25809 27.0584 4.12 26.67H2.67V30C2.67 30.37 2.97 30.67 3.33 30.67H26C26.37 30.67 26.67 30.37 26.67 30V2ZM6 26.67C6.1777 26.67 6.34811 26.5994 6.47376 26.4738C6.59941 26.3481 6.67 26.1777 6.67 26C6.67 25.8223 6.59941 25.6519 6.47376 25.5262C6.34811 25.4006 6.1777 25.33 6 25.33C5.8223 25.33 5.65189 25.4006 5.52624 25.5262C5.40059 25.6519 5.33 25.8223 5.33 26C5.33 26.1777 5.40059 26.3481 5.52624 26.4738C5.65189 26.5994 5.8223 26.67 6 26.67ZM6 20C6.37 20 6.67 19.7 6.67 19.33C6.67 18.97 6.37 18.67 6 18.67C5.63 18.67 5.33 18.97 5.33 19.33C5.33 19.7 5.63 20 6 20ZM6 13.33C6.37 13.33 6.67 13.03 6.67 12.67C6.67 12.4923 6.59941 12.3219 6.47376 12.1962C6.34811 12.0706 6.1777 12 6 12C5.8223 12 5.65189 12.0706 5.52624 12.1962C5.40059 12.3219 5.33 12.4923 5.33 12.67C5.33 13.03 5.63 13.33 6 13.33ZM6 6.67C6.1777 6.67 6.34811 6.59941 6.47376 6.47376C6.59941 6.34811 6.67 6.1777 6.67 6C6.67 5.8223 6.59941 5.65189 6.47376 5.52624C6.34811 5.40059 6.1777 5.33 6 5.33C5.8223 5.33 5.65189 5.40059 5.52624 5.52624C5.40059 5.65189 5.33 5.8223 5.33 6C5.33 6.1777 5.40059 6.34811 5.52624 6.47376C5.65189 6.59941 5.8223 6.67 6 6.67Z" fill="white"/>
</svg>
