<svg width="33" height="32" viewBox="0 0 33 32" fill="none" xmlns="http://www.w3.org/2000/svg">
<rect width="32.9474" height="32" fill="black" fill-opacity="0"/>
<rect width="32.9474" height="32" fill="black" fill-opacity="0"/>
<path d="M32.9474 3.0682V4.45821C32.9474 5.28189 32.2884 5.95109 31.475 5.95109H31.2691V22.744C31.2691 23.5676 30.6102 24.2369 29.7968 24.2369H17.215V26.43L22.6822 30.4969C22.8021 30.4948 22.9208 30.5213 23.0284 30.5744C23.136 30.6275 23.2292 30.7056 23.3005 30.8021C23.3717 30.8986 23.4188 31.0107 23.4378 31.1292C23.4569 31.2476 23.4473 31.3688 23.4099 31.4828C23.3724 31.5967 23.3083 31.7001 23.2228 31.7842C23.1373 31.8683 23.0329 31.9308 22.9183 31.9663C22.8038 32.0018 22.6824 32.0094 22.5643 31.9884C22.4462 31.9674 22.3348 31.9185 22.2395 31.8457C22.0841 31.8423 21.9334 31.792 21.807 31.7015L17.215 28.2832V31.0941C17.215 31.5059 16.8855 31.8457 16.4737 31.8457C16.2761 31.843 16.0876 31.7626 15.9489 31.6219C15.8101 31.4813 15.7324 31.2917 15.7324 31.0941V28.2832L11.1403 31.7015C10.9816 31.8152 10.7844 31.8616 10.5917 31.8308C10.3989 31.8 10.2261 31.6943 10.1107 31.5368C10.0523 31.4585 10.01 31.3694 9.98612 31.2746C9.96226 31.1799 9.95737 31.0814 9.97172 30.9848C9.98608 30.8881 10.0194 30.7952 10.0697 30.7115C10.1201 30.6278 10.1865 30.5549 10.2652 30.4969L15.7324 26.43V24.2369H3.15059C2.33721 24.2369 1.67826 23.5676 1.67826 22.744V5.95109H1.47234C0.658948 5.95109 0 5.28189 0 4.45821V3.0682C0 2.24452 0.658948 1.57526 1.47234 1.57526H15.7324V0.741286C15.7324 0.643935 15.7516 0.547557 15.7888 0.457616C15.8261 0.367676 15.8807 0.285957 15.9495 0.21712C16.0183 0.148282 16.1001 0.0936869 16.19 0.0564322C16.2799 0.0191776 16.3763 0 16.4737 0C16.571 0 16.6674 0.0191776 16.7574 0.0564322C16.8473 0.0936869 16.929 0.148282 16.9979 0.21712C17.0667 0.285957 17.1213 0.367676 17.1586 0.457616C17.1958 0.547557 17.215 0.643935 17.215 0.741286V1.57526H31.475C32.2884 1.57526 32.9474 2.24452 32.9474 3.0682ZM29.7968 22.744V5.95109H3.15059V22.744H29.7968ZM31.475 4.45821V3.0682H1.47234V4.45821H31.475Z" fill="#3970F2"/>
<rect width="12.8497" height="13.0039" fill="black" fill-opacity="0" transform="translate(10.296 8.22656)"/>
<path d="M23.1456 14.7234C23.1456 18.3167 20.2627 21.2305 16.7208 21.2305C15.8717 21.2251 15.032 21.0525 14.2495 20.7226C13.4671 20.3927 12.7574 19.9118 12.1608 19.3076C11.5642 18.7033 11.0924 17.9875 10.7725 17.2009C10.4525 16.4144 10.2907 15.5725 10.2961 14.7234C10.2961 14.3527 10.5947 14.0541 10.9653 14.0541H16.0516V8.89583C16.0516 8.52517 16.3502 8.22656 16.7208 8.22656C18.4339 8.23745 20.0727 8.92773 21.2772 10.1458C22.4818 11.3639 23.1538 13.0103 23.1456 14.7234ZM21.8071 14.7234C21.8137 13.4801 21.3684 12.2767 20.554 11.3372C19.7395 10.3978 18.6115 9.78626 17.3798 9.6165V14.7234C17.3798 15.094 17.0812 15.4029 16.7208 15.4029H11.6655C11.8226 16.6351 12.4217 17.7685 13.3515 18.5922C14.2814 19.416 15.4786 19.8742 16.7208 19.8817C17.3937 19.8777 18.0592 19.7409 18.6791 19.4794C19.2991 19.2178 19.8614 18.8366 20.3338 18.3575C20.8063 17.8783 21.1796 17.3107 21.4324 16.6871C21.6852 16.0635 21.8125 15.3962 21.8071 14.7234Z" fill="#3970F2"/>
<rect width="5.52908" height="5.59075" fill="black" fill-opacity="0" transform="translate(9.2663 7.1969)"/>
<path d="M14.7954 7.86617V12.1184C14.7954 12.4891 14.4968 12.7877 14.1261 12.7877H9.93564C9.75815 12.7877 9.58792 12.7172 9.46241 12.5916C9.3369 12.4661 9.26639 12.2959 9.26639 12.1184C9.26233 11.4762 9.3848 10.8394 9.62683 10.2445C9.86885 9.64958 10.2257 9.10814 10.677 8.65113C11.1282 8.19412 11.6651 7.83051 12.2569 7.58099C12.8487 7.33147 13.4839 7.20094 14.1261 7.1969C14.4968 7.1969 14.7954 7.49551 14.7954 7.86617ZM13.4672 8.60745C12.767 8.74307 12.1241 9.08692 11.6226 9.59395C11.1211 10.101 10.7843 10.7476 10.6564 11.4492H13.4672V8.60745Z" fill="#3970F2"/>
</svg>
