<svg width="50" height="50" viewBox="0 0 50 50" fill="none" xmlns="http://www.w3.org/2000/svg">
<rect width="49.9999" height="50" fill="black" fill-opacity="0"/>
<rect width="49.9999" height="50" fill="black" fill-opacity="0"/>
<rect width="49.9999" height="50" fill="black" fill-opacity="0"/>
<path d="M48.3333 45H45.8333V10.8333C45.8333 10.5343 45.673 10.2581 45.4134 10.1099L34.1667 3.6832V0.833301C34.1667 0.373047 33.7937 0 33.3334 0C32.8731 0 32.5 0.373047 32.5 0.833301V19.1666H30.8333V15.8333C30.8334 15.3731 30.4605 15.0001 30.0004 15C30.0003 15 30.0001 15 30 15H20C19.5398 14.9999 19.1668 15.3728 19.1667 15.8329C19.1667 15.833 19.1667 15.8332 19.1667 15.8333V19.1666H17.5V0.833301C17.5 0.373047 17.127 0 16.6667 0C16.2064 0 15.8334 0.373047 15.8334 0.833301V3.68311L4.58662 10.1099C4.32695 10.2582 4.1667 10.5343 4.1667 10.8334V45H1.6667C0.746582 45.0011 0.00107424 45.7466 1.9179e-08 46.6667V49.1667C-9.76371e-05 49.6269 0.372754 49.9999 0.83291 50C0.833106 50 0.833203 50 0.833301 50H49.1666C49.6268 50.0001 49.9998 49.6272 49.9999 49.1671C49.9999 49.167 49.9999 49.1668 49.9999 49.1667V46.6667C49.9989 45.7466 49.2534 45.0011 48.3333 45ZM34.1667 5.60264L44.1667 11.3168V45H34.1667V5.60264ZM20.8333 16.6667H29.1666V19.1667H20.8333V16.6667ZM17.5 20.8333H20H32.5V45H30.8333V39.1667C30.8322 38.2467 30.0867 37.5011 29.1666 37.5H27.5C26.58 37.5011 25.8344 38.2467 25.8333 39.1667V45H24.1666V39.1667C24.1655 38.2467 23.42 37.5011 22.4999 37.5H20.8332C19.9132 37.5011 19.1676 38.2467 19.1665 39.1667V45H17.5V20.8333ZM29.1667 39.1667V45H27.5V39.1667H29.1667ZM22.5 39.1667V45H20.8333V39.1667H22.5ZM5.8333 11.3167L15.8333 5.60254V45H5.8333V11.3167ZM48.3333 48.3333H1.6667V46.6666H48.3334V48.3333H48.3333Z" fill="#0FD6AB"/>
<rect width="11.6666" height="1.6667" fill="black" fill-opacity="0" transform="translate(19.1667 23.3335)"/>
<rect width="11.6666" height="1.6667" fill="black" fill-opacity="0" transform="translate(19.1667 23.3335)"/>
<path d="M30.0001 23.3335H20C19.5398 23.3335 19.1667 23.7065 19.1667 24.1668C19.1667 24.6271 19.5398 25.0002 20 25.0002H30.0001C30.4603 25.0002 30.8334 24.6271 30.8334 24.1669C30.8334 23.7066 30.4603 23.3335 30.0001 23.3335Z" fill="#0FD6AB"/>
<rect width="11.6666" height="1.6666" fill="black" fill-opacity="0" transform="translate(19.1667 26.6665)"/>
<rect width="11.6666" height="1.6666" fill="black" fill-opacity="0" transform="translate(19.1667 26.6665)"/>
<path d="M30.0001 26.6665H20C19.5398 26.6665 19.1667 27.0397 19.1667 27.4998C19.1667 27.96 19.5398 28.3331 20 28.3331H30.0001C30.4603 28.3331 30.8334 27.9601 30.8334 27.4998C30.8334 27.0396 30.4603 26.6665 30.0001 26.6665Z" fill="#0FD6AB"/>
<rect width="11.6666" height="1.6666" fill="black" fill-opacity="0" transform="translate(19.1667 30)"/>
<rect width="11.6666" height="1.6666" fill="black" fill-opacity="0" transform="translate(19.1667 30)"/>
<path d="M30.0001 30H20C19.5398 30 19.1667 30.373 19.1667 30.8333C19.1667 31.2936 19.5398 31.6666 20 31.6666H30.0001C30.4603 31.6666 30.8334 31.2936 30.8334 30.8333C30.8334 30.373 30.4603 30 30.0001 30Z" fill="#0FD6AB"/>
<rect width="11.6666" height="1.6666" fill="black" fill-opacity="0" transform="translate(19.1667 33.3335)"/>
<rect width="11.6666" height="1.6666" fill="black" fill-opacity="0" transform="translate(19.1667 33.3335)"/>
<path d="M30.0001 33.3335H20C19.5398 33.3335 19.1667 33.7065 19.1667 34.1668C19.1667 34.627 19.5398 35.0001 20 35.0001H30.0001C30.4603 35.0001 30.8334 34.627 30.8334 34.1668C30.8334 33.7065 30.4603 33.3335 30.0001 33.3335Z" fill="#0FD6AB"/>
<rect width="6.6666" height="1.6666" fill="black" fill-opacity="0" transform="translate(7.5 12.5)"/>
<rect width="6.6666" height="1.6666" fill="black" fill-opacity="0" transform="translate(7.5 12.5)"/>
<path d="M13.3333 12.5H8.3333C7.87305 12.5 7.5 12.873 7.5 13.3333C7.5 13.7936 7.87305 14.1666 8.3333 14.1666H13.3333C13.7936 14.1666 14.1666 13.7936 14.1666 13.3333C14.1666 12.873 13.7936 12.5 13.3333 12.5Z" fill="#0FD6AB"/>
<rect width="6.6666" height="1.6666" fill="black" fill-opacity="0" transform="translate(7.5 15.8335)"/>
<rect width="6.6666" height="1.6666" fill="black" fill-opacity="0" transform="translate(7.5 15.8335)"/>
<path d="M13.3333 15.8335H8.3333C7.87305 15.8335 7.5 16.2065 7.5 16.6668C7.5 17.1271 7.87305 17.5001 8.3333 17.5001H13.3333C13.7936 17.5001 14.1666 17.1271 14.1666 16.6668C14.1666 16.2065 13.7936 15.8335 13.3333 15.8335Z" fill="#0FD6AB"/>
<rect width="6.6666" height="1.6666" fill="black" fill-opacity="0" transform="translate(7.5 19.1665)"/>
<rect width="6.6666" height="1.6666" fill="black" fill-opacity="0" transform="translate(7.5 19.1665)"/>
<path d="M13.3333 19.1665H8.3333C7.87305 19.1665 7.5 19.5396 7.5 19.9998C7.5 20.4601 7.87305 20.8331 8.3333 20.8331H13.3333C13.7936 20.8331 14.1666 20.46 14.1666 19.9998C14.1666 19.5396 13.7936 19.1665 13.3333 19.1665Z" fill="#0FD6AB"/>
<rect width="6.6666" height="1.6666" fill="black" fill-opacity="0" transform="translate(7.5 22.5)"/>
<rect width="6.6666" height="1.6666" fill="black" fill-opacity="0" transform="translate(7.5 22.5)"/>
<path d="M13.3333 22.5H8.3333C7.87305 22.5 7.5 22.873 7.5 23.3333C7.5 23.7936 7.87305 24.1666 8.3333 24.1666H13.3333C13.7936 24.1666 14.1666 23.7936 14.1666 23.3333C14.1666 22.873 13.7936 22.5 13.3333 22.5Z" fill="#0FD6AB"/>
<rect width="6.6666" height="1.6666" fill="black" fill-opacity="0" transform="translate(7.5 25.8335)"/>
<rect width="6.6666" height="1.6666" fill="black" fill-opacity="0" transform="translate(7.5 25.8335)"/>
<path d="M13.3333 25.8335H8.3333C7.87305 25.8335 7.5 26.2066 7.5 26.6668C7.5 27.1271 7.87305 27.5001 8.3333 27.5001H13.3333C13.7936 27.5001 14.1666 27.127 14.1666 26.6668C14.1667 26.2066 13.7936 25.8335 13.3333 25.8335Z" fill="#0FD6AB"/>
<rect width="6.6666" height="1.6666" fill="black" fill-opacity="0" transform="translate(7.5 29.1665)"/>
<rect width="6.6666" height="1.6666" fill="black" fill-opacity="0" transform="translate(7.5 29.1665)"/>
<path d="M13.3333 29.1665H8.3333C7.87305 29.1665 7.5 29.5396 7.5 29.9998C7.5 30.4601 7.87305 30.8331 8.3333 30.8331H13.3333C13.7936 30.8331 14.1666 30.4601 14.1666 29.9998C14.1666 29.5396 13.7936 29.1665 13.3333 29.1665Z" fill="#0FD6AB"/>
<rect width="6.6666" height="1.6666" fill="black" fill-opacity="0" transform="translate(7.5 32.5)"/>
<rect width="6.6666" height="1.6666" fill="black" fill-opacity="0" transform="translate(7.5 32.5)"/>
<path d="M13.3333 32.5H8.3333C7.87305 32.5 7.5 32.8731 7.5 33.3333C7.5 33.7935 7.87305 34.1666 8.3333 34.1666H13.3333C13.7936 34.1666 14.1666 33.7936 14.1666 33.3333C14.1666 32.873 13.7936 32.5 13.3333 32.5Z" fill="#0FD6AB"/>
<rect width="6.6666" height="1.6667" fill="black" fill-opacity="0" transform="translate(7.5 35.8335)"/>
<rect width="6.6666" height="1.6667" fill="black" fill-opacity="0" transform="translate(7.5 35.8335)"/>
<path d="M13.3333 35.8335H8.3333C7.87305 35.8335 7.5 36.2065 7.5 36.6668C7.5 37.127 7.87305 37.5002 8.3333 37.5002H13.3333C13.7936 37.5002 14.1666 37.1271 14.1666 36.6669C14.1666 36.2066 13.7936 35.8335 13.3333 35.8335Z" fill="#0FD6AB"/>
<rect width="6.6666" height="1.6666" fill="black" fill-opacity="0" transform="translate(7.5 39.1665)"/>
<rect width="6.6666" height="1.6666" fill="black" fill-opacity="0" transform="translate(7.5 39.1665)"/>
<path d="M13.3333 39.1665H8.3333C7.87305 39.1665 7.5 39.5396 7.5 39.9998C7.5 40.4601 7.87305 40.8331 8.3333 40.8331H13.3333C13.7936 40.8331 14.1666 40.4601 14.1666 39.9998C14.1666 39.5396 13.7936 39.1665 13.3333 39.1665Z" fill="#0FD6AB"/>
<rect width="6.6666" height="1.6666" fill="black" fill-opacity="0" transform="translate(35.8334 12.5)"/>
<rect width="6.6666" height="1.6666" fill="black" fill-opacity="0" transform="translate(35.8334 12.5)"/>
<path d="M41.6667 12.5H36.6667C36.2064 12.5 35.8334 12.873 35.8334 13.3333C35.8334 13.7936 36.2064 14.1666 36.6667 14.1666H41.6667C42.1269 14.1666 42.5 13.7936 42.5 13.3333C42.5 12.873 42.1269 12.5 41.6667 12.5Z" fill="#0FD6AB"/>
<rect width="6.6666" height="1.6666" fill="black" fill-opacity="0" transform="translate(35.8334 15.8335)"/>
<rect width="6.6666" height="1.6666" fill="black" fill-opacity="0" transform="translate(35.8334 15.8335)"/>
<path d="M41.6667 15.8335H36.6667C36.2064 15.8335 35.8334 16.2065 35.8334 16.6668C35.8334 17.1271 36.2064 17.5001 36.6667 17.5001H41.6667C42.1269 17.5001 42.5 17.1271 42.5 16.6668C42.5 16.2065 42.1269 15.8335 41.6667 15.8335Z" fill="#0FD6AB"/>
<rect width="6.6666" height="1.6666" fill="black" fill-opacity="0" transform="translate(35.8334 19.1665)"/>
<rect width="6.6666" height="1.6666" fill="black" fill-opacity="0" transform="translate(35.8334 19.1665)"/>
<path d="M41.6667 19.1665H36.6667C36.2064 19.1665 35.8334 19.5396 35.8334 19.9998C35.8334 20.4601 36.2064 20.8331 36.6667 20.8331H41.6667C42.1269 20.8331 42.5 20.46 42.5 19.9998C42.5 19.5396 42.1269 19.1665 41.6667 19.1665Z" fill="#0FD6AB"/>
<rect width="6.6666" height="1.6666" fill="black" fill-opacity="0" transform="translate(35.8334 22.5)"/>
<rect width="6.6666" height="1.6666" fill="black" fill-opacity="0" transform="translate(35.8334 22.5)"/>
<path d="M41.6667 22.5H36.6667C36.2064 22.5 35.8334 22.873 35.8334 23.3333C35.8334 23.7936 36.2064 24.1666 36.6667 24.1666H41.6667C42.1269 24.1666 42.5 23.7936 42.5 23.3333C42.5 22.873 42.1269 22.5 41.6667 22.5Z" fill="#0FD6AB"/>
<rect width="6.6666" height="1.6666" fill="black" fill-opacity="0" transform="translate(35.8334 25.8335)"/>
<rect width="6.6666" height="1.6666" fill="black" fill-opacity="0" transform="translate(35.8334 25.8335)"/>
<path d="M41.6667 25.8335H36.6667C36.2064 25.8335 35.8334 26.2066 35.8334 26.6668C35.8334 27.1271 36.2064 27.5001 36.6667 27.5001H41.6667C42.1269 27.5001 42.5 27.127 42.5 26.6668C42.5 26.2066 42.1269 25.8335 41.6667 25.8335Z" fill="#0FD6AB"/>
<rect width="6.6666" height="1.6666" fill="black" fill-opacity="0" transform="translate(35.8334 29.1665)"/>
<rect width="6.6666" height="1.6666" fill="black" fill-opacity="0" transform="translate(35.8334 29.1665)"/>
<path d="M41.6667 29.1665H36.6667C36.2064 29.1665 35.8334 29.5396 35.8334 29.9998C35.8334 30.4601 36.2064 30.8331 36.6667 30.8331H41.6667C42.1269 30.8331 42.5 30.4601 42.5 29.9998C42.5 29.5396 42.1269 29.1665 41.6667 29.1665Z" fill="#0FD6AB"/>
<rect width="6.6666" height="1.6666" fill="black" fill-opacity="0" transform="translate(35.8334 32.5)"/>
<rect width="6.6666" height="1.6666" fill="black" fill-opacity="0" transform="translate(35.8334 32.5)"/>
<path d="M41.6667 32.5H36.6667C36.2064 32.5 35.8334 32.8731 35.8334 33.3333C35.8334 33.7935 36.2064 34.1666 36.6667 34.1666H41.6667C42.1269 34.1666 42.5 33.7936 42.5 33.3333C42.5 32.873 42.1269 32.5 41.6667 32.5Z" fill="#0FD6AB"/>
<rect width="6.6666" height="1.6666" fill="black" fill-opacity="0" transform="translate(35.8334 35.8335)"/>
<rect width="6.6666" height="1.6666" fill="black" fill-opacity="0" transform="translate(35.8334 35.8335)"/>
<path d="M41.6667 35.8335H36.6667C36.2064 35.8335 35.8334 36.2065 35.8334 36.6668C35.8334 37.127 36.2064 37.5001 36.6667 37.5001H41.6667C42.1269 37.5001 42.5 37.127 42.5 36.6668C42.5 36.2065 42.1269 35.8335 41.6667 35.8335Z" fill="#0FD6AB"/>
<rect width="6.6666" height="1.6666" fill="black" fill-opacity="0" transform="translate(35.8334 39.1665)"/>
<rect width="6.6666" height="1.6666" fill="black" fill-opacity="0" transform="translate(35.8334 39.1665)"/>
<path d="M41.6667 39.1665H36.6667C36.2064 39.1665 35.8334 39.5396 35.8334 39.9998C35.8334 40.4601 36.2064 40.8331 36.6667 40.8331H41.6667C42.1269 40.8331 42.5 40.4601 42.5 39.9998C42.5 39.5396 42.1269 39.1665 41.6667 39.1665Z" fill="#0FD6AB"/>
</svg>
