<svg width="50" height="50" viewBox="0 0 50 50" fill="none" xmlns="http://www.w3.org/2000/svg">
<rect width="50" height="50" fill="black" fill-opacity="0"/>
<rect width="50" height="50" fill="black" fill-opacity="0"/>
<rect width="50" height="50" fill="black" fill-opacity="0"/>
<path d="M48.3333 16.6667C49.2534 16.6658 49.999 15.9201 50 15V12.5C50 12.0397 49.627 11.6667 49.1667 11.6667H47.2952L44.307 1.20889C44.1007 0.494727 43.448 0.00234375 42.7047 0H7.29531C6.55215 0.00234375 5.89951 0.494531 5.69297 1.2085L2.70479 11.6667H0.833301C0.373047 11.6667 0 12.0397 0 12.5V15C0.000878906 15.9201 0.746582 16.6657 1.6667 16.6667H2.5V45H1.6667C0.746582 45.0009 0.000878906 45.7466 0 46.6667V49.1667C0 49.627 0.373047 50 0.833301 50H49.1666C49.6269 50 49.9999 49.627 49.9999 49.1667V46.6667C49.999 45.7466 49.2533 45.001 48.3332 45H47.5V16.6667H48.3333ZM7.29531 1.6667H42.7047L45.5619 11.6667H4.43809L7.29531 1.6667ZM16.6667 48.3333H1.6667V46.6666H16.6667V48.3333ZM31.6667 48.3333H18.3333V46.6666H31.6666V48.3333H31.6667ZM20.8333 45V33.3333H29.1666V45H20.8333ZM30.8333 45V33.3333C30.8324 32.4132 30.0867 31.6676 29.1666 31.6666H20.8333C19.9132 31.6675 19.1676 32.4132 19.1666 33.3333V45H4.1666V30H45.8333V45H32.5H30.8333ZM4.1667 28.3333V16.6667H45.8334V28.3334H4.1667V28.3333ZM48.3333 46.6667V48.3334H33.3333V46.6667H48.3333ZM46.6667 15H1.6667V13.3333H48.3338L48.3347 15H46.6667Z" fill="white"/>
<rect width="23.3332" height="6.6665" fill="black" fill-opacity="0" transform="translate(7.50012 3.3335)"/>
<rect width="23.3332" height="6.6665" fill="black" fill-opacity="0" transform="translate(7.50012 3.3335)"/>
<path d="M30 6.6668H15V5.0001H27.5C27.9603 5.0001 28.3333 4.62705 28.3333 4.1668C28.3333 3.70654 27.9603 3.3335 27.5 3.3335H11.6667C11.2065 3.3335 10.8334 3.70654 10.8334 4.1668C10.8334 4.62705 11.2065 5.0001 11.6667 5.0001H13.3334V6.6668H8.33342C7.87317 6.6668 7.50012 7.03984 7.50012 7.5001C7.50012 7.96035 7.87317 8.3334 8.33342 8.3334H20V9.1667C20 9.62695 20.3732 10 20.8333 10C21.2936 10 21.6666 9.62695 21.6666 9.1667V8.3334H30C30.4603 8.3334 30.8333 7.96035 30.8333 7.5001C30.8333 7.03984 30.4603 6.6668 30 6.6668Z" fill="white"/>
<rect width="11.6666" height="8.3333" fill="black" fill-opacity="0" transform="translate(5.83337 18.3335)"/>
<rect width="11.6666" height="8.3333" fill="black" fill-opacity="0" transform="translate(5.83337 18.3335)"/>
<path d="M16.6667 18.3335H6.66667C6.20642 18.3335 5.83337 18.7065 5.83337 19.1668V25.8335C5.83337 26.2937 6.20642 26.6668 6.66667 26.6668H16.6667C17.1269 26.6668 17.5 26.2937 17.5 25.8335V19.1668C17.5 18.7066 17.1269 18.3335 16.6667 18.3335ZM10.8333 21.6669H9.99998C9.53972 21.6669 9.16667 22.0399 9.16667 22.5002C9.16667 22.9604 9.53972 23.3335 9.99998 23.3335H10.8333V25.0002H7.49998V20.0002H10.8333V21.6669ZM15.8333 25.0002H12.5V23.3335H15.8333V25.0002ZM15.8333 21.6669H12.5V20.0002H15.8333V21.6669Z" fill="white"/>
<rect width="11.6666" height="8.3333" fill="black" fill-opacity="0" transform="translate(19.1667 18.3335)"/>
<rect width="11.6666" height="8.3333" fill="black" fill-opacity="0" transform="translate(19.1667 18.3335)"/>
<path d="M30 18.3335H20C19.5397 18.3335 19.1667 18.7065 19.1667 19.1668V25.8335C19.1667 26.2937 19.5397 26.6668 20 26.6668H30C30.4602 26.6668 30.8333 26.2937 30.8333 25.8335V19.1668C30.8333 18.7066 30.4602 18.3335 30 18.3335ZM24.1667 21.6669H23.3334C22.8731 21.6669 22.5001 22.0399 22.5001 22.5002C22.5001 22.9604 22.8731 23.3335 23.3334 23.3335H24.1667V25.0002H20.8334V20.0002H24.1667V21.6669ZM29.1667 25.0002H25.8334V23.3335H29.1667V25.0002ZM29.1667 21.6669H25.8334V20.0002H29.1667V21.6669Z" fill="white"/>
<rect width="11.6666" height="8.3333" fill="black" fill-opacity="0" transform="translate(32.5 18.3335)"/>
<rect width="11.6666" height="8.3333" fill="black" fill-opacity="0" transform="translate(32.5 18.3335)"/>
<path d="M43.3333 18.3335H33.3333C32.873 18.3335 32.5 18.7065 32.5 19.1668V25.8335C32.5 26.2937 32.8731 26.6668 33.3333 26.6668H43.3333C43.7936 26.6668 44.1666 26.2937 44.1666 25.8335V19.1668C44.1667 18.7066 43.7936 18.3335 43.3333 18.3335ZM37.5 21.6669H36.6667C36.2064 21.6669 35.8334 22.0399 35.8334 22.5002C35.8334 22.9604 36.2064 23.3335 36.6667 23.3335H37.5V25.0002H34.1667V20.0002H37.5V21.6669ZM42.5 25.0002H39.1667V23.3335H42.5V25.0002ZM42.5 21.6669H39.1667V20.0002H42.5V21.6669Z" fill="white"/>
<rect width="11.6666" height="8.3333" fill="black" fill-opacity="0" transform="translate(5.83337 33.3335)"/>
<rect width="11.6666" height="8.3333" fill="black" fill-opacity="0" transform="translate(5.83337 33.3335)"/>
<path d="M16.6667 33.3335H6.66667C6.20642 33.3335 5.83337 33.7065 5.83337 34.1668V40.8335C5.83337 41.2937 6.20642 41.6668 6.66667 41.6668H16.6667C17.1269 41.6668 17.5 41.2937 17.5 40.8335V34.1668C17.5 33.7066 17.1269 33.3335 16.6667 33.3335ZM10.8333 36.6669H9.99998C9.53972 36.6669 9.16667 37.0399 9.16667 37.5002C9.16667 37.9604 9.53972 38.3335 9.99998 38.3335H10.8333V40.0002H7.49998V35.0002H10.8333V36.6669ZM15.8333 40.0002H12.5V38.3335H15.8333V40.0002ZM15.8333 36.6669H12.5V35.0002H15.8333V36.6669Z" fill="white"/>
<rect width="11.6666" height="8.3333" fill="black" fill-opacity="0" transform="translate(32.5 33.3335)"/>
<rect width="11.6666" height="8.3333" fill="black" fill-opacity="0" transform="translate(32.5 33.3335)"/>
<path d="M43.3333 33.3335H33.3333C32.873 33.3335 32.5 33.7065 32.5 34.1668V40.8335C32.5 41.2937 32.8731 41.6668 33.3333 41.6668H43.3333C43.7936 41.6668 44.1666 41.2937 44.1666 40.8335V34.1668C44.1667 33.7066 43.7936 33.3335 43.3333 33.3335ZM37.5 36.6669H36.6667C36.2064 36.6669 35.8334 37.0399 35.8334 37.5002C35.8334 37.9604 36.2064 38.3335 36.6667 38.3335H37.5V40.0002H34.1667V35.0002H37.5V36.6669ZM42.5 40.0002H39.1667V38.3335H42.5V40.0002ZM42.5 36.6669H39.1667V35.0002H42.5V36.6669Z" fill="white"/>
<rect width="1.6666" height="2.4999" fill="black" fill-opacity="0" transform="translate(22.5 38.3335)"/>
<rect width="1.6666" height="2.4999" fill="black" fill-opacity="0" transform="translate(22.5 38.3335)"/>
<path d="M23.3333 38.3335C22.873 38.3335 22.5 38.7066 22.5 39.1668V40.0001C22.5 40.4604 22.873 40.8334 23.3333 40.8334C23.7936 40.8334 24.1666 40.4604 24.1666 40.0001V39.1668C24.1667 38.7066 23.7936 38.3335 23.3333 38.3335Z" fill="white"/>
</svg>
