<svg width="50" height="50" viewBox="0 0 50 50" fill="none" xmlns="http://www.w3.org/2000/svg">
<rect width="50" height="50" fill="black" fill-opacity="0"/>
<rect width="50" height="50" fill="black" fill-opacity="0"/>
<rect width="50" height="50" fill="black" fill-opacity="0"/>
<rect width="50" height="50" fill="black" fill-opacity="0"/>
<path d="M48.0151 19.1684H49.1667C49.6269 19.1684 50 18.7954 50 18.3351V15.002C50 14.5417 49.6269 14.1687 49.1667 14.1687H48.3334V10.0023C48.3319 8.62228 47.2135 7.5039 45.8334 7.50244H35.3015C33.4653 1.81345 27.3646 -1.30999 21.6753 0.526125C18.3634 1.5949 15.7674 4.19083 14.6985 7.50244H4.1667C2.78662 7.5039 1.66816 8.62228 1.6667 10.0023V14.1687H0.833301C0.373047 14.1687 0 14.5418 0 15.002V18.335C0 18.7953 0.373047 19.1683 0.833301 19.1683H1.98486L3.3333 21.8651V25.0013C2.41318 25.0022 1.66758 25.7478 1.6666 26.6679V28.3345C1.66748 29.2546 2.41318 30.0001 3.3333 30.0011V31.6677C2.41318 31.6686 1.66758 32.4142 1.6666 33.3343V35.0009C1.66748 35.9209 2.41318 36.6665 3.3333 36.6675V38.334C2.41318 38.3349 1.66758 39.0806 1.6666 40.0006V41.6672C1.66748 42.5873 2.41318 43.3328 3.3333 43.3338V45.0004H0.833301C0.373047 45.0004 0 45.3734 0 45.8337V49.1668C0 49.627 0.373047 50 0.833301 50H49.1666C49.6269 50 49.9999 49.6269 49.9999 49.1668V45.8337C49.9999 45.3734 49.6269 45.0004 49.1666 45.0004H46.6666V43.3338C47.5867 43.3329 48.3323 42.5873 48.3333 41.6672V40.0003C48.3324 39.0803 47.5867 38.3347 46.6666 38.3338V36.6672C47.5867 36.6663 48.3323 35.9206 48.3333 35.0006V33.334C48.3324 32.4139 47.5867 31.6684 46.6666 31.6674V30.001C47.5867 30.0001 48.3323 29.2545 48.3333 28.3344V26.6678C48.3324 25.7477 47.5867 25.0022 46.6666 25.0012V21.865L48.0151 19.1684ZM3.3333 10.0023C3.33389 9.54234 3.70664 9.16961 4.1666 9.16903H15.3165C15.3376 9.16903 15.3554 9.15858 15.3761 9.15702C15.4347 9.15184 15.4926 9.14012 15.5485 9.12216C15.7527 9.07089 15.9257 8.93535 16.0242 8.74923C16.0535 8.70187 16.0777 8.65158 16.0966 8.59924C16.1034 8.57903 16.1183 8.56399 16.1237 8.5429C17.3907 3.64106 22.3917 0.694278 27.2938 1.96119C30.5214 2.79532 33.0418 5.31556 33.876 8.5429C33.882 8.56653 33.8969 8.58479 33.9048 8.60734C33.9536 8.7381 34.0319 8.85586 34.1335 8.95166C34.1834 8.99482 34.2383 9.03183 34.297 9.0619C34.3252 9.07929 34.3545 9.09501 34.3846 9.10878C34.4794 9.14735 34.5805 9.16776 34.6828 9.16912L34.6831 9.16903L34.6833 9.16912H45.8332C46.2932 9.16971 46.6659 9.54244 46.6665 10.0024V14.1688H3.3333V10.0023ZM48.3333 46.6666V48.3332H1.6667V46.6666H48.3333ZM36.6667 32.5008V36.6673H33.3334V32.5008H36.6667ZM33.3333 30.8342V26.6678H36.6666V30.8342H33.3333ZM41.6667 38.3338V45H33.3334V38.3338H41.6667ZM41.6667 32.5008V36.6673H38.3334V32.5008H41.6667ZM38.3333 30.8342V26.6678H41.6666V30.8342H38.3333ZM46.6667 28.3344H45.8334C45.3731 28.3344 45.0001 28.7074 45.0001 29.1676V32.5007C45.0001 32.961 45.3731 33.334 45.8334 33.334H46.6667V35.0006H45.8334C45.3731 35.0006 45.0001 35.3736 45.0001 35.8338V39.1669C45.0001 39.6271 45.3731 40.0002 45.8334 40.0002H46.6667V41.6667H45.8334C45.3731 41.6667 45.0001 42.0398 45.0001 42.5V44.9998H43.3334V26.6679C43.3325 25.7478 42.5868 25.0023 41.6667 25.0013H33.3334C32.4133 25.0022 31.6677 25.7478 31.6667 26.6679V45H5V42.5002C5 42.04 4.62695 41.6669 4.1667 41.6669H3.3334V40.0003H4.1667C4.62695 40.0003 5 39.6273 5 39.1671V35.834C5 35.3738 4.62695 35.0008 4.1667 35.0008H3.3334V33.3342H4.1667C4.62695 33.3342 5 32.9611 5 32.5009V29.1678C5 28.7076 4.62695 28.3346 4.1667 28.3346H3.3334V26.668H4.1667C4.62695 26.668 5 26.295 5 25.8348V22.5015H45V25.8346C45 26.2948 45.373 26.6678 45.8333 26.6678H46.6666V28.3344H46.6667ZM3.84844 19.1684H46.1515L45.3182 20.835H4.68184L3.84844 19.1684ZM1.6667 17.5018V15.8352H48.3334V17.5018H1.6667Z" fill="#0FD6AB"/>
<rect width="21.6667" height="18.3322" fill="black" fill-opacity="0" transform="translate(7.5 24.168)"/>
<rect width="21.6667" height="18.3322" fill="black" fill-opacity="0" transform="translate(7.5 24.168)"/>
<path d="M29.1614 29.1419C29.1592 29.0445 29.1397 28.9483 29.1041 28.8577C29.0966 28.8392 29.0849 28.8241 29.0762 28.8061C29.0562 28.7595 29.0319 28.7147 29.0036 28.6726L26.1765 24.8438C25.8613 24.4197 25.3646 24.1692 24.8361 24.168H11.132C10.5259 24.1678 9.96748 24.497 9.67412 25.0273L7.6042 28.7641C7.59492 28.7809 7.5915 28.7996 7.5834 28.8168C7.57324 28.8383 7.56592 28.8598 7.55771 28.8822C7.52451 28.9687 7.50596 29.0601 7.50303 29.1527C7.50293 29.158 7.5 29.1623 7.5 29.1676V40.8336C7.50088 41.7537 8.24658 42.4992 9.1667 42.5002H27.5C28.4201 42.4993 29.1657 41.7537 29.1667 40.8336V29.1677C29.1667 29.1586 29.1617 29.1509 29.1614 29.1419ZM11.132 25.8346H24.836L26.6821 28.3344H9.74727L11.132 25.8346ZM27.5 30.001V31.6676C27.5 32.1278 27.1269 32.5008 26.6667 32.5008C26.2064 32.5008 25.8334 32.1278 25.8334 31.6676V30.001H27.5ZM24.1667 30.001V31.6676C24.1667 32.1278 23.7937 32.5008 23.3334 32.5008C22.8731 32.5008 22.5001 32.1278 22.5001 31.6676V30.001H24.1667ZM20.8333 30.001V31.6676C20.8333 32.1278 20.4602 32.5008 20 32.5008C19.5398 32.5008 19.1667 32.1278 19.1667 31.6676V30.001H20.8333ZM17.5 30.001V31.6676C17.5 32.1278 17.127 32.5008 16.6667 32.5008C16.2064 32.5008 15.8334 32.1278 15.8334 31.6676V30.001H17.5ZM14.1667 30.001V31.6676C14.1667 32.1278 13.7937 32.5008 13.3334 32.5008C12.8731 32.5008 12.5001 32.1278 12.5001 31.6676V30.001H14.1667ZM9.1667 30.001H10.8334V31.6676C10.8334 32.1278 10.4604 32.5008 10.0001 32.5008C9.53984 32.5008 9.1668 32.1278 9.1668 31.6676V30.001H9.1667ZM9.1667 40.8336V34.0137C10.0268 34.3357 10.9949 34.1433 11.6667 33.5172C12.6087 34.3841 14.058 34.3841 15 33.5172C15.942 34.3841 17.3913 34.3841 18.3333 33.5172C19.2753 34.3841 20.7246 34.3841 21.6666 33.5172C22.6086 34.3841 24.0579 34.3841 24.9999 33.5172C25.6718 34.1434 26.6401 34.3357 27.5004 34.0136L27.5012 40.8336H9.1667Z" fill="#0FD6AB"/>
</svg>
