<svg width="50" height="50" viewBox="0 0 50 50" fill="none" xmlns="http://www.w3.org/2000/svg">
<rect width="49.9977" height="50" fill="black" fill-opacity="0"/>
<rect width="49.9977" height="50" fill="black" fill-opacity="0"/>
<rect width="49.9977" height="50" fill="black" fill-opacity="0"/>
<path d="M48.3312 45.0002H44.1647V14.2936C44.1617 13.405 43.6911 12.5836 42.9262 12.1314L33.8544 6.84158C32.5769 1.95078 27.5764 -0.978186 22.6856 0.299393C19.482 1.13627 16.9803 3.63801 16.1434 6.84158L7.06755 12.1338C6.3046 12.5862 5.83577 13.4065 5.83304 14.2936V45.0002H1.66662C0.746646 45.0014 0.00126965 45.7469 1.72615e-07 46.6668V49.1667C-0.000292783 49.6267 0.372347 49.9998 0.832287 50C0.83258 50 0.832971 50 0.833264 50H49.1644C49.6243 50.0003 49.9975 49.6277 49.9977 49.1677C49.9977 49.1674 49.9977 49.167 49.9977 49.1667V46.6668C49.9966 45.7469 49.2511 45.0014 48.3312 45.0002ZM42.0823 13.5693C42.3387 13.7207 42.4966 13.9958 42.4981 14.2936V45.0002H34.1652V9.16853C34.1652 9.09343 34.1557 9.02068 34.1538 8.94598L42.0823 13.5693ZM17.4993 9.16853C17.5038 5.02848 20.8589 1.67336 24.999 1.66886C29.139 1.67336 32.4942 5.02848 32.4986 9.16853V45.0002H29.1655V41.6671C29.164 40.2871 28.0456 39.1686 26.6656 39.1672H23.3325C21.9524 39.1686 20.834 40.2871 20.8326 41.6671V45.0002H17.4994V9.16853H17.4993ZM27.4989 41.6671V45.0002H22.4991V41.6671C22.4994 41.207 22.8723 40.8341 23.3324 40.8338H26.6655C27.1256 40.8341 27.4985 41.2069 27.4989 41.6671ZM7.49966 14.2936C7.50074 13.9974 7.65698 13.7234 7.91146 13.5717L15.8439 8.94588C15.8421 9.02058 15.8326 9.09334 15.8326 9.16843V45.0001H7.49966V14.2936ZM48.3312 48.3334H1.66662V46.6668H48.3312V48.3334Z" fill="#0FD6AB"/>
<rect width="5.00027" height="3.33388" fill="black" fill-opacity="0" transform="translate(9.16858 39.1655)"/>
<rect width="5.00027" height="3.33388" fill="black" fill-opacity="0" transform="translate(9.16858 39.1655)"/>
<path d="M14.0819 39.6289C13.8774 39.2165 13.3775 39.048 12.9651 39.2525C12.9634 39.2532 12.9617 39.2541 12.9601 39.255L9.62694 40.9216C9.21592 41.1288 9.05079 41.63 9.25801 42.041C9.46425 42.4501 9.96198 42.616 10.3724 42.4125L13.7056 40.7459C14.1178 40.5414 14.2864 40.0413 14.0819 39.6289Z" fill="#0FD6AB"/>
<rect width="5.00027" height="3.33388" fill="black" fill-opacity="0" transform="translate(9.16858 35.8325)"/>
<rect width="5.00027" height="3.33388" fill="black" fill-opacity="0" transform="translate(9.16858 35.8325)"/>
<path d="M14.0819 36.2959C13.8774 35.8835 13.3775 35.715 12.9651 35.9195C12.9634 35.9202 12.9617 35.9211 12.9601 35.922L9.62694 37.5886C9.21592 37.7958 9.05079 38.297 9.25801 38.708C9.46425 39.1171 9.96198 39.283 10.3724 39.0795L13.7056 37.4128C14.1178 37.2083 14.2864 36.7083 14.0819 36.2959Z" fill="#0FD6AB"/>
<rect width="5.00027" height="3.33388" fill="black" fill-opacity="0" transform="translate(9.16858 32.499)"/>
<rect width="5.00027" height="3.33388" fill="black" fill-opacity="0" transform="translate(9.16858 32.499)"/>
<path d="M14.0819 32.9624C13.8774 32.55 13.3775 32.3815 12.9651 32.586C12.9634 32.5867 12.9617 32.5876 12.9601 32.5885L9.62694 34.2551C9.21592 34.4623 9.05079 34.9635 9.25801 35.3745C9.46425 35.7836 9.96198 35.9495 10.3724 35.746L13.7056 34.0794C14.1178 33.8749 14.2864 33.3748 14.0819 32.9624Z" fill="#0FD6AB"/>
<rect width="4.99532" height="3.33133" fill="black" fill-opacity="0" transform="translate(9.16858 29.1685)"/>
<rect width="4.99532" height="3.33133" fill="black" fill-opacity="0" transform="translate(9.16858 29.1685)"/>
<path d="M14.0745 29.6269C13.8682 29.2178 13.3705 29.0519 12.9601 29.2554L9.62694 30.922C9.21592 31.1292 9.05079 31.6304 9.25801 32.0414C9.46425 32.4505 9.96198 32.6164 10.3724 32.4129L13.7056 30.7462C14.1165 30.5389 14.2817 30.0378 14.0745 29.6269Z" fill="#0FD6AB"/>
<rect width="5.00008" height="3.33377" fill="black" fill-opacity="0" transform="translate(9.16858 25.833)"/>
<rect width="5.00008" height="3.33377" fill="black" fill-opacity="0" transform="translate(9.16858 25.833)"/>
<path d="M14.0816 26.2962C13.877 25.8839 13.377 25.7154 12.9647 25.92C12.9631 25.9208 12.9616 25.9216 12.9601 25.9224L9.62694 27.589C9.21592 27.7962 9.05079 28.2974 9.25801 28.7084C9.46425 29.1174 9.96198 29.2834 10.3724 29.0798L13.7056 27.4132C14.1178 27.2085 14.2862 26.7085 14.0816 26.2962Z" fill="#0FD6AB"/>
<rect width="5.00027" height="3.33387" fill="black" fill-opacity="0" transform="translate(9.1684 22.4995)"/>
<rect width="5.00027" height="3.33387" fill="black" fill-opacity="0" transform="translate(9.1684 22.4995)"/>
<path d="M14.0816 22.9627C13.877 22.5504 13.377 22.382 12.9647 22.5865C12.9631 22.5873 12.9617 22.5881 12.9601 22.5889L9.62694 24.2555C9.21593 24.4626 9.0506 24.9638 9.25772 25.3748C9.46396 25.784 9.96189 25.9501 10.3724 25.7464L13.7056 24.0797C14.1179 23.8751 14.2862 23.3751 14.0816 22.9627Z" fill="#0FD6AB"/>
<rect width="5.00027" height="3.33387" fill="black" fill-opacity="0" transform="translate(9.1684 19.1665)"/>
<rect width="5.00027" height="3.33387" fill="black" fill-opacity="0" transform="translate(9.1684 19.1665)"/>
<path d="M14.0816 19.6297C13.877 19.2174 13.377 19.0489 12.9647 19.2535C12.9631 19.2543 12.9617 19.2551 12.9601 19.2559L9.62694 20.9225C9.21593 21.1296 9.0506 21.6308 9.25772 22.0418C9.46396 22.451 9.96189 22.617 10.3724 22.4133L13.7056 20.7467C14.1179 20.542 14.2862 20.042 14.0816 19.6297Z" fill="#0FD6AB"/>
<rect width="5.00027" height="3.33387" fill="black" fill-opacity="0" transform="translate(9.1684 15.8335)"/>
<rect width="5.00027" height="3.33387" fill="black" fill-opacity="0" transform="translate(9.1684 15.8335)"/>
<path d="M14.0816 16.2967C13.877 15.8844 13.377 15.7159 12.9647 15.9205C12.9631 15.9213 12.9617 15.9221 12.9601 15.9229L9.62694 17.5895C9.21593 17.7966 9.0506 18.2978 9.25772 18.7088C9.46396 19.118 9.96189 19.284 10.3724 19.0803L13.7056 17.4137C14.1179 17.209 14.2862 16.709 14.0816 16.2967Z" fill="#0FD6AB"/>
<rect width="5.0029" height="3.33476" fill="black" fill-opacity="0" transform="translate(9.16589 12.5)"/>
<rect width="5.0029" height="3.33476" fill="black" fill-opacity="0" transform="translate(9.16589 12.5)"/>
<path d="M14.0818 12.9633C13.8773 12.5509 13.3772 12.3825 12.9648 12.587C12.9633 12.5877 12.9616 12.5885 12.9601 12.5894L9.62691 14.256C9.21521 14.4618 9.04823 14.9622 9.25398 15.3739C9.39528 15.6566 9.68433 15.8352 10.0004 15.8348C10.1295 15.8347 10.2569 15.8046 10.3723 15.7469L13.7054 14.0803C14.1178 13.8757 14.2864 13.3757 14.0818 12.9633Z" fill="#0FD6AB"/>
<rect width="4.99536" height="3.33126" fill="black" fill-opacity="0" transform="translate(35.834 39.168)"/>
<rect width="4.99536" height="3.33126" fill="black" fill-opacity="0" transform="translate(35.834 39.168)"/>
<path d="M40.371 40.9215L37.0378 39.2549C36.6254 39.0504 36.1255 39.219 35.921 39.6313C35.7175 40.0417 35.8834 40.5394 36.2924 40.7457L39.6256 42.4123C40.038 42.6168 40.538 42.4482 40.7424 42.0359C40.946 41.6256 40.78 41.1278 40.371 40.9215Z" fill="#0FD6AB"/>
<rect width="5.00027" height="3.33373" fill="black" fill-opacity="0" transform="translate(35.834 35.835)"/>
<rect width="5.00027" height="3.33373" fill="black" fill-opacity="0" transform="translate(35.834 35.835)"/>
<path d="M40.3758 37.591C40.3742 37.5902 40.3726 37.5893 40.371 37.5885L37.0378 35.9219C36.6254 35.7174 36.1255 35.886 35.921 36.2983C35.7175 36.7087 35.8834 37.2065 36.2924 37.4127L39.6256 39.0793C40.0366 39.2865 40.5378 39.1213 40.745 38.7103C40.9521 38.2993 40.7869 37.7982 40.3758 37.591Z" fill="#0FD6AB"/>
<rect width="5.00032" height="3.33373" fill="black" fill-opacity="0" transform="translate(35.834 32.502)"/>
<rect width="5.00032" height="3.33373" fill="black" fill-opacity="0" transform="translate(35.834 32.502)"/>
<path d="M40.3758 34.258C40.3742 34.2572 40.3726 34.2563 40.371 34.2555L37.0378 32.5889C36.6254 32.3844 36.1255 32.553 35.921 32.9652C35.7175 33.3757 35.8834 33.8734 36.2924 34.0796L39.6256 35.7463C40.0366 35.9535 40.5378 35.7883 40.745 35.3772C40.9522 34.9662 40.7869 34.4652 40.3758 34.258Z" fill="#0FD6AB"/>
<rect width="5.00027" height="3.33373" fill="black" fill-opacity="0" transform="translate(35.834 29.1685)"/>
<rect width="5.00027" height="3.33373" fill="black" fill-opacity="0" transform="translate(35.834 29.1685)"/>
<path d="M40.3758 30.9245C40.3742 30.9237 40.3726 30.9228 40.371 30.922L37.0378 29.2554C36.6254 29.0509 36.1255 29.2195 35.921 29.6317C35.7175 30.0422 35.8834 30.54 36.2924 30.7462L39.6256 32.4128C40.0366 32.62 40.5378 32.4548 40.745 32.0438C40.9521 31.6328 40.7869 31.1317 40.3758 30.9245Z" fill="#0FD6AB"/>
<rect width="5.00027" height="3.33373" fill="black" fill-opacity="0" transform="translate(35.834 25.8354)"/>
<rect width="5.00027" height="3.33373" fill="black" fill-opacity="0" transform="translate(35.834 25.8354)"/>
<path d="M40.3758 27.5915C40.3742 27.5907 40.3726 27.5898 40.371 27.589L37.0378 25.9224C36.6254 25.7179 36.1255 25.8865 35.921 26.2987C35.7175 26.7092 35.8834 27.2069 36.2924 27.4131L39.6256 29.0798C40.0366 29.287 40.5378 29.1218 40.745 28.7107C40.9521 28.2998 40.7869 27.7987 40.3758 27.5915Z" fill="#0FD6AB"/>
<rect width="5.00021" height="3.33373" fill="black" fill-opacity="0" transform="translate(35.8338 22.502)"/>
<rect width="5.00021" height="3.33373" fill="black" fill-opacity="0" transform="translate(35.8338 22.502)"/>
<path d="M40.3754 24.2579C40.3739 24.2571 40.3724 24.2564 40.3709 24.2556L37.0378 22.589C36.6255 22.3844 36.1254 22.5528 35.9208 22.9651C35.7171 23.3756 35.8831 23.8736 36.2924 24.0797L39.6255 25.7464C40.0366 25.9535 40.5377 25.7881 40.7447 25.3771C40.9518 24.966 40.7865 24.4649 40.3754 24.2579Z" fill="#0FD6AB"/>
<rect width="5.00026" height="3.33373" fill="black" fill-opacity="0" transform="translate(35.8338 19.1689)"/>
<rect width="5.00026" height="3.33373" fill="black" fill-opacity="0" transform="translate(35.8338 19.1689)"/>
<path d="M40.3754 20.9249C40.3739 20.9241 40.3724 20.9234 40.3709 20.9226L37.0378 19.256C36.6255 19.0514 36.1254 19.2198 35.9208 19.632C35.7171 20.0426 35.8831 20.5406 36.2924 20.7467L39.6255 22.4134C40.0366 22.6205 40.5377 22.4551 40.7447 22.044C40.9519 21.633 40.7865 21.132 40.3754 20.9249Z" fill="#0FD6AB"/>
<rect width="5.00021" height="3.33373" fill="black" fill-opacity="0" transform="translate(35.8338 15.8354)"/>
<rect width="5.00021" height="3.33373" fill="black" fill-opacity="0" transform="translate(35.8338 15.8354)"/>
<path d="M40.3754 17.5914C40.3739 17.5906 40.3724 17.5899 40.3709 17.5891L37.0378 15.9225C36.6255 15.7179 36.1254 15.8863 35.9208 16.2985C35.7171 16.7091 35.8831 17.2071 36.2924 17.4132L39.6255 19.0799C40.0366 19.287 40.5377 19.1216 40.7447 18.7105C40.9518 18.2995 40.7865 17.7985 40.3754 17.5914Z" fill="#0FD6AB"/>
<rect width="5.00021" height="3.33372" fill="black" fill-opacity="0" transform="translate(35.8338 12.5024)"/>
<rect width="5.00021" height="3.33372" fill="black" fill-opacity="0" transform="translate(35.8338 12.5024)"/>
<path d="M40.3754 14.2584C40.3739 14.2576 40.3724 14.2569 40.3709 14.2561L37.0378 12.5895C36.6255 12.3849 36.1254 12.5533 35.9208 12.9655C35.7171 13.3761 35.8831 13.8741 36.2924 14.0802L39.6255 15.7469C40.0366 15.954 40.5377 15.7886 40.7447 15.3775C40.9518 14.9665 40.7865 14.4654 40.3754 14.2584Z" fill="#0FD6AB"/>
<rect width="4.99987" height="4.99987" fill="black" fill-opacity="0" transform="translate(19.1658 32.501)"/>
<rect width="4.99987" height="4.99987" fill="black" fill-opacity="0" transform="translate(19.1658 32.501)"/>
<path d="M22.4991 32.501H20.8325C19.9125 32.5021 19.1671 33.2476 19.1658 34.1676V35.8342C19.167 36.7542 19.9125 37.4996 20.8325 37.5008H22.4991C23.4191 37.4997 24.1644 36.7542 24.1657 35.8342V34.1676C24.1644 33.2476 23.419 32.5021 22.4991 32.501ZM20.8325 35.8341V34.1676H22.4991L22.5007 35.8342H20.8325V35.8341Z" fill="#0FD6AB"/>
<rect width="4.99987" height="4.99987" fill="black" fill-opacity="0" transform="translate(25.8322 32.501)"/>
<rect width="4.99987" height="4.99987" fill="black" fill-opacity="0" transform="translate(25.8322 32.501)"/>
<path d="M29.1654 32.501H27.4988C26.5788 32.5021 25.8334 33.2476 25.8322 34.1676V35.8342C25.8333 36.7542 26.5788 37.4996 27.4988 37.5008H29.1654C30.0854 37.4997 30.8308 36.7542 30.832 35.8342V34.1676C30.8309 33.2476 30.0854 32.5021 29.1654 32.501ZM27.4989 35.8341V34.1676H29.1655L29.1672 35.8342H27.4989V35.8341Z" fill="#0FD6AB"/>
<rect width="4.99987" height="4.99987" fill="black" fill-opacity="0" transform="translate(19.1658 25.8345)"/>
<rect width="4.99987" height="4.99987" fill="black" fill-opacity="0" transform="translate(19.1658 25.8345)"/>
<path d="M22.4991 25.8345H20.8325C19.9125 25.8356 19.1671 26.5811 19.1658 27.5011V29.1677C19.167 30.0877 19.9125 30.8331 20.8325 30.8343H22.4991C23.4191 30.8332 24.1644 30.0877 24.1657 29.1677V27.5011C24.1644 26.5811 23.419 25.8357 22.4991 25.8345ZM20.8325 29.1677V27.5011H22.4991L22.5007 29.1677H20.8325Z" fill="#0FD6AB"/>
<rect width="4.99987" height="4.99987" fill="black" fill-opacity="0" transform="translate(25.8322 25.8345)"/>
<rect width="4.99987" height="4.99987" fill="black" fill-opacity="0" transform="translate(25.8322 25.8345)"/>
<path d="M29.1654 25.8345H27.4988C26.5788 25.8356 25.8334 26.5811 25.8322 27.5011V29.1677C25.8333 30.0877 26.5788 30.8331 27.4988 30.8343H29.1654C30.0854 30.8332 30.8308 30.0877 30.832 29.1677V27.5011C30.8309 26.5811 30.0854 25.8357 29.1654 25.8345ZM27.4989 29.1677V27.5011H29.1655L29.1672 29.1677H27.4989Z" fill="#0FD6AB"/>
<rect width="4.99987" height="4.99987" fill="black" fill-opacity="0" transform="translate(19.1658 19.168)"/>
<rect width="4.99987" height="4.99987" fill="black" fill-opacity="0" transform="translate(19.1658 19.168)"/>
<path d="M22.4991 19.168H20.8325C19.9125 19.1691 19.1671 19.9146 19.1658 20.8346V22.5012C19.167 23.4212 19.9125 24.1666 20.8325 24.1678H22.4991C23.4191 24.1667 24.1644 23.4212 24.1657 22.5012V20.8346C24.1644 19.9146 23.419 19.1691 22.4991 19.168ZM20.8325 22.5011V20.8345H22.4991L22.5007 22.5011H20.8325Z" fill="#0FD6AB"/>
<rect width="4.99987" height="4.99987" fill="black" fill-opacity="0" transform="translate(25.8322 19.168)"/>
<rect width="4.99987" height="4.99987" fill="black" fill-opacity="0" transform="translate(25.8322 19.168)"/>
<path d="M29.1654 19.168H27.4988C26.5788 19.1691 25.8334 19.9146 25.8322 20.8346V22.5012C25.8333 23.4212 26.5788 24.1666 27.4988 24.1678H29.1654C30.0854 24.1667 30.8308 23.4212 30.832 22.5012V20.8346C30.8309 19.9146 30.0854 19.1691 29.1654 19.168ZM27.4989 22.5011V20.8345H29.1655L29.1672 22.5011H27.4989Z" fill="#0FD6AB"/>
<rect width="4.99987" height="4.99987" fill="black" fill-opacity="0" transform="translate(19.1658 12.5015)"/>
<rect width="4.99987" height="4.99987" fill="black" fill-opacity="0" transform="translate(19.1658 12.5015)"/>
<path d="M22.4991 12.5015H20.8325C19.9125 12.5026 19.1671 13.2481 19.1658 14.1681V15.8347C19.167 16.7547 19.9125 17.5001 20.8325 17.5013H22.4991C23.4191 17.5002 24.1644 16.7547 24.1657 15.8347V14.1681C24.1644 13.2481 23.419 12.5026 22.4991 12.5015ZM20.8325 15.8346V14.1681H22.4991L22.5007 15.8347H20.8325V15.8346Z" fill="#0FD6AB"/>
<rect width="4.99987" height="4.99987" fill="black" fill-opacity="0" transform="translate(25.8322 12.5015)"/>
<rect width="4.99987" height="4.99987" fill="black" fill-opacity="0" transform="translate(25.8322 12.5015)"/>
<path d="M29.1654 12.5015H27.4988C26.5788 12.5026 25.8334 13.2481 25.8322 14.1681V15.8347C25.8333 16.7547 26.5788 17.5001 27.4988 17.5013H29.1654C30.0854 17.5002 30.8308 16.7547 30.832 15.8347V14.1681C30.8309 13.2481 30.0854 12.5026 29.1654 12.5015ZM27.4989 15.8346V14.1681H29.1655L29.1672 15.8347H27.4989V15.8346Z" fill="#0FD6AB"/>
<rect width="4.99987" height="4.99987" fill="black" fill-opacity="0" transform="translate(19.1658 5.83545)"/>
<rect width="4.99987" height="4.99987" fill="black" fill-opacity="0" transform="translate(19.1658 5.83545)"/>
<path d="M22.4991 5.83545H20.8325C19.9125 5.83662 19.1671 6.5821 19.1658 7.50207V9.1687C19.167 10.0887 19.9125 10.8341 20.8325 10.8353H22.4991C23.4191 10.8342 24.1644 10.0887 24.1657 9.1687V7.50207C24.1644 6.5821 23.419 5.83672 22.4991 5.83545ZM20.8325 9.1687V7.50207H22.4991L22.5007 9.1687H20.8325Z" fill="#0FD6AB"/>
<rect width="4.99987" height="4.99987" fill="black" fill-opacity="0" transform="translate(25.8322 5.83545)"/>
<rect width="4.99987" height="4.99987" fill="black" fill-opacity="0" transform="translate(25.8322 5.83545)"/>
<path d="M29.1654 5.83545H27.4988C26.5788 5.83662 25.8334 6.5821 25.8322 7.50207V9.1687C25.8333 10.0887 26.5788 10.8341 27.4988 10.8353H29.1654C30.0854 10.8342 30.8308 10.0887 30.832 9.1687V7.50207C30.8309 6.5821 30.0854 5.83672 29.1654 5.83545ZM27.4989 9.1687V7.50207H29.1655L29.1672 9.1687H27.4989Z" fill="#0FD6AB"/>
</svg>
