<svg width="96" height="22" viewBox="0 0 96 22" fill="none" xmlns="http://www.w3.org/2000/svg">
<rect width="96" height="22" fill="black" fill-opacity="0"/>
<rect width="96" height="22" fill="black" fill-opacity="0"/>
<path d="M55.7511 21.9934C55.5261 22.001 55.302 21.9632 55.0929 21.8824C54.8838 21.8017 54.6943 21.6797 54.5364 21.5243C54.3785 21.3689 54.2556 21.1834 54.1756 20.9796C54.0956 20.7758 54.0601 20.5582 54.0715 20.3404C54.0634 20.1334 54.1015 19.9272 54.1834 19.7359C54.2652 19.5445 54.3888 19.3726 54.5456 19.2318C54.7036 19.0802 54.8923 18.9618 55.0997 18.8839C55.3071 18.806 55.5288 18.7704 55.7511 18.7792C55.9614 18.7585 56.1729 18.8046 56.3539 18.9104L56.1575 19.2974C56.0295 19.244 55.89 19.2215 55.7511 19.2318C55.4298 19.2414 55.1215 19.3571 54.8775 19.5598C54.6718 19.7718 54.5538 20.0496 54.5456 20.3404C54.5357 20.4962 54.5601 20.6523 54.6172 20.7983C54.6743 20.9443 54.7627 21.0769 54.8767 21.1873C54.9907 21.2977 55.1276 21.3834 55.2783 21.4387C55.4291 21.494 55.5902 21.5176 55.7511 21.508C55.8188 21.508 55.9543 21.449 56.022 21.449V20.629H55.4802V20.1043H56.557V21.7967L56.3539 21.8622C56.1617 21.9376 55.9581 21.9819 55.7511 21.9934ZM53.1979 18.8054V21.0816L51.7892 18.8054H51.3219V21.9934H51.7892V19.7172L53.1979 21.9934H53.672V18.8054H53.1979ZM50.7801 18.8054H50.3128V21.9934H50.7936L50.7801 18.8054ZM47.9627 18.8054V19.2581H48.64V21.9934H49.175V19.2581H49.8523V18.8054H47.9627ZM47.0214 20.5634C47.2025 20.4928 47.363 20.3802 47.4887 20.2355C47.5732 20.0747 47.6195 19.8976 47.6241 19.7172C47.626 19.597 47.6028 19.4777 47.5562 19.3662C47.5095 19.2548 47.4403 19.1536 47.3525 19.0686C47.2647 18.9835 47.1602 18.9164 47.0451 18.8713C46.9301 18.8261 46.8069 18.8037 46.6828 18.8054H45.4772V21.9934H45.9445V20.629H46.5473L47.2246 21.9934H47.8273L47.0214 20.5634ZM45.9445 20.1699V19.2581H46.6828C46.8182 19.2581 46.8859 19.3237 47.0214 19.3893C47.1568 19.4549 47.1568 19.586 47.1568 19.7172C47.1541 19.8369 47.1059 19.9514 47.0214 20.0387C46.8859 20.1043 46.8182 20.1699 46.6828 20.1699H45.9445ZM43.459 21.9934C43.2362 22.0022 43.0139 21.9659 42.8063 21.8869C42.5988 21.8078 42.4105 21.6877 42.2535 21.5343C41.9599 21.2104 41.7922 20.7975 41.7795 20.3666C41.7936 19.9537 41.9621 19.5598 42.2535 19.2581C42.4116 19.1064 42.6002 18.988 42.8076 18.9101C43.015 18.8322 43.2368 18.7966 43.459 18.8054C43.6729 18.7906 43.8874 18.8238 44.0859 18.9023C44.2844 18.9808 44.4616 19.1025 44.6036 19.2581C44.7642 19.3937 44.8944 19.5596 44.9864 19.7458C45.0784 19.9319 45.1302 20.1342 45.1386 20.3404C45.135 20.5599 45.0858 20.7764 44.9938 20.977C44.9019 21.1776 44.7692 21.3582 44.6036 21.508C44.4671 21.672 44.2918 21.8017 44.0926 21.8862C43.8933 21.9707 43.676 22.0075 43.459 21.9934ZM43.459 19.2581C43.3088 19.2575 43.1601 19.2862 43.0216 19.3426C42.8831 19.3989 42.7578 19.4817 42.6531 19.586C42.5436 19.6801 42.457 19.7966 42.3996 19.9271C42.3422 20.0575 42.3155 20.1987 42.3213 20.3404C42.3084 20.5015 42.3327 20.6634 42.3924 20.8143C42.4522 20.9652 42.5459 21.1014 42.6667 21.2128C42.7717 21.3163 42.8972 21.3981 43.0357 21.4533C43.1742 21.5086 43.3228 21.5361 43.4726 21.5343C43.6295 21.5329 43.7844 21.5004 43.9277 21.4386C44.071 21.3768 44.1997 21.2872 44.3058 21.1752C44.4118 21.0633 44.493 20.9314 44.5442 20.7878C44.5955 20.6442 44.6157 20.4919 44.6036 20.3404C44.6138 20.1937 44.5884 20.0468 44.5296 19.9113C44.4709 19.7758 44.3802 19.6554 44.265 19.5598C44.1585 19.4596 44.0322 19.3812 43.8938 19.3294C43.7553 19.2775 43.6074 19.2533 43.459 19.2581ZM39.9035 21.9934H39.4294V18.8054H40.6349C40.7607 18.7989 40.8865 18.819 41.0034 18.8643C41.1204 18.9096 41.2257 18.9791 41.3122 19.0678C41.4726 19.2528 41.5676 19.4827 41.5831 19.7238C41.5649 19.9643 41.4702 20.1935 41.3122 20.3798C41.2257 20.4685 41.1204 20.538 41.0034 20.5833C40.8865 20.6286 40.7607 20.6487 40.6349 20.6422H39.9035V21.9934ZM39.9035 20.1699H40.6349C40.7704 20.1699 40.8313 20.1043 40.9668 20.0387C41.0283 19.9428 41.0523 19.8288 41.0345 19.7172C41.045 19.6039 41.0215 19.49 40.9668 19.3893C40.8313 19.3237 40.7704 19.2581 40.6349 19.2581H39.9035V20.1699ZM37.3503 18.8054V21.9934H39.0298V21.4752H37.8853V20.629H38.7589V20.1699H37.8853V19.2581H39.0298V18.8054H37.3503ZM36.3412 20.5634C36.4926 20.4741 36.6295 20.3636 36.7475 20.2355C36.8578 20.0852 36.9039 19.8996 36.8762 19.7172C36.8838 19.5959 36.8641 19.4744 36.8185 19.3611C36.7729 19.2479 36.7025 19.1456 36.6121 19.0613C36.5299 18.9673 36.4252 18.8943 36.3071 18.8485C36.1891 18.8028 36.0612 18.7858 35.9348 18.7989H34.7293V21.9869H35.2643V20.629H35.8061L36.5714 21.9934H37.1065L36.3412 20.5634ZM35.2643 20.1699V19.2581H35.9416C36.0649 19.2619 36.1826 19.3084 36.2734 19.3893C36.3412 19.5205 36.4089 19.586 36.4089 19.7172C36.4062 19.8369 36.358 19.9514 36.2734 20.0387C36.1826 20.1195 36.0649 20.166 35.9416 20.1699H35.2643ZM33.1175 20.1699V19.914H32.6502V20.1699H32.5079C32.4061 20.1534 32.3117 20.1077 32.237 20.0387C32.1874 20.0013 32.1487 19.9519 32.1249 19.8955C32.1012 19.8391 32.0931 19.7776 32.1016 19.7172C32.0932 19.6559 32.1013 19.5935 32.125 19.5361C32.1488 19.4787 32.1873 19.4281 32.237 19.3893C32.3117 19.3202 32.4061 19.2745 32.5079 19.2581H32.9075V18.8054H32.5079C32.3931 18.7992 32.2784 18.8198 32.1735 18.8655C32.0686 18.9111 31.9766 18.9805 31.9052 19.0678C31.8036 19.1474 31.7209 19.2471 31.6625 19.3603C31.6041 19.4734 31.5714 19.5974 31.5666 19.7238C31.5986 19.9391 31.6925 20.1414 31.8375 20.3076C31.6934 20.3818 31.5755 20.496 31.4988 20.6356C31.4378 20.7787 31.4145 20.9342 31.4311 21.0882C31.4252 21.1994 31.4468 21.3103 31.4939 21.4118C31.541 21.5133 31.6123 21.6025 31.702 21.672C31.7847 21.7697 31.8878 21.8495 32.0045 21.906C32.1212 21.9625 32.2489 21.9945 32.3793 22H33.1175V20.629H33.2529V20.1699H33.1175ZM32.6502 21.4818H32.3793C32.2438 21.4818 32.1084 21.4818 32.0406 21.3506C31.9711 21.2779 31.9262 21.1863 31.912 21.0882C31.9124 20.9674 31.9581 20.8508 32.0406 20.7602C32.1357 20.6827 32.2551 20.6388 32.3793 20.6356H32.6502V21.4818ZM75.3642 17.2508C75.1511 17.2591 74.9387 17.223 74.7412 17.1449C74.5437 17.0668 74.3659 16.9486 74.2197 16.7982C74.0636 16.6434 73.9417 16.4595 73.8613 16.2577C73.781 16.0558 73.7439 15.8402 73.7524 15.624C73.7507 15.4185 73.7912 15.2147 73.8714 15.0244C73.9516 14.8341 74.07 14.6611 74.2197 14.5154C74.3659 14.365 74.5437 14.2468 74.7412 14.1687C74.9387 14.0906 75.1511 14.0545 75.3642 14.0628C75.5987 14.0353 75.836 14.0812 76.0415 14.194L75.8383 14.6466C75.6968 14.5646 75.5359 14.5194 75.371 14.5154C75.0697 14.5245 74.7826 14.6413 74.5651 14.8434C74.3684 15.0615 74.2496 15.3353 74.2265 15.624C74.2363 15.9352 74.3558 16.2338 74.5651 16.4702C74.7826 16.6723 75.0697 16.7891 75.371 16.7982C75.4859 16.8091 75.6015 16.7862 75.7029 16.7326V15.8798H75.1746V15.4207H76.1837V17.0606L76.0483 17.1262C75.8393 17.2358 75.5994 17.2772 75.3642 17.2443V17.2508ZM72.8787 14.0628V16.339L71.4701 14.0628H70.9283V17.2508H71.4701V14.9681L72.8246 17.2443H73.3596V14.0563L72.8787 14.0628ZM70.461 14.0628H69.9192V17.2508H70.461V14.0628ZM68.9846 16.7982C68.8342 16.7999 68.685 16.7717 68.5464 16.7153C68.4078 16.6589 68.2826 16.5755 68.1786 16.4702C68.0619 16.3616 67.9712 16.2296 67.9127 16.0834C67.8542 15.9372 67.8294 15.7804 67.84 15.624C67.8357 15.478 67.8636 15.3328 67.9221 15.1982C67.9805 15.0636 68.0679 14.9426 68.1786 14.8434C68.2826 14.7382 68.4078 14.6547 68.5464 14.5983C68.685 14.5419 68.8342 14.5137 68.9846 14.5154C69.1707 14.5208 69.3533 14.5655 69.5196 14.6466V14.1284C69.3469 14.0749 69.1655 14.0527 68.9846 14.0628C68.7613 14.0542 68.5386 14.09 68.3301 14.1678C68.1217 14.2456 67.9318 14.3639 67.7723 14.5154C67.4939 14.8246 67.3295 15.2145 67.305 15.624C67.3165 16.0558 67.4816 16.4706 67.7723 16.7982C67.9318 16.9497 68.1217 17.068 68.3301 17.1458C68.5386 17.2237 68.7613 17.2594 68.9846 17.2508C69.1655 17.2609 69.3469 17.2387 69.5196 17.1852V16.667C69.3527 16.7458 69.1701 16.7884 68.9846 16.7916V16.7982ZM66.4313 15.8142C66.5929 15.7423 66.7311 15.6288 66.8309 15.4863C66.888 15.413 66.9294 15.3294 66.9526 15.2404C66.9759 15.1514 66.9806 15.0588 66.9663 14.9681C66.9745 14.8461 66.9545 14.7239 66.9076 14.6104C66.8607 14.4969 66.7882 14.395 66.6954 14.3121C66.5117 14.1453 66.27 14.0517 66.0182 14.0497H64.8872V17.2377H65.3545V15.8798H65.8895L66.6345 17.2443H67.1695L66.4313 15.8142ZM65.3545 15.4207V14.5745H66.0317C66.1672 14.5745 66.3026 14.5745 66.3704 14.7057C66.4117 14.7369 66.4453 14.7766 66.4687 14.822C66.4921 14.8674 66.5048 14.9173 66.5058 14.9681C66.5044 15.088 66.456 15.2029 66.3704 15.2895C66.2778 15.3718 66.1574 15.4184 66.0317 15.4207H65.3545ZM63.1399 17.2443C62.9892 17.2485 62.8393 17.2214 62.7003 17.1648C62.5613 17.1082 62.4364 17.0235 62.334 16.9163C62.2253 16.8156 62.1392 16.6943 62.0809 16.56C62.0227 16.4258 61.9935 16.2813 61.9953 16.1357V14.0563H62.4694V16.1357C62.467 16.2213 62.4833 16.3064 62.5171 16.3855C62.551 16.4646 62.6016 16.5359 62.6658 16.5948C62.7939 16.714 62.9624 16.784 63.1399 16.7916C63.2279 16.7939 63.3153 16.7774 63.3961 16.7434C63.4768 16.7094 63.5489 16.6587 63.6072 16.5948C63.6733 16.5371 63.7257 16.4661 63.7608 16.3868C63.7958 16.3076 63.8128 16.2219 63.8104 16.1357V14.0563H64.3386V16.1357C64.3417 16.2809 64.3138 16.4252 64.2567 16.5595C64.1996 16.6938 64.1145 16.8153 64.0068 16.9163C63.8951 17.0281 63.7599 17.1152 63.6103 17.1718C63.4607 17.2284 63.3002 17.2531 63.1399 17.2443ZM59.9162 17.2443C59.7031 17.2525 59.4906 17.2164 59.2932 17.1383C59.0957 17.0603 58.9179 16.942 58.7716 16.7916C58.6156 16.6369 58.4936 16.453 58.4133 16.2511C58.333 16.0492 58.2959 15.8336 58.3043 15.6175C58.3027 15.4119 58.3432 15.2081 58.4234 15.0178C58.5036 14.8276 58.622 14.6546 58.7716 14.5089C58.9179 14.3585 59.0957 14.2402 59.2932 14.1622C59.4906 14.0841 59.7031 14.048 59.9162 14.0563C60.1385 14.0474 60.3602 14.0831 60.5676 14.1609C60.775 14.2388 60.9637 14.3572 61.1217 14.5089C61.2797 14.6506 61.4062 14.8219 61.4935 15.0125C61.5808 15.2031 61.6271 15.4089 61.6296 15.6175C61.6392 15.8336 61.6023 16.0493 61.5213 16.2508C61.4403 16.4524 61.3169 16.6355 61.159 16.7884C61.0011 16.9414 60.8121 17.0609 60.604 17.1394C60.3959 17.2178 60.1732 17.2535 59.9501 17.2443H59.9162ZM59.9162 14.5089C59.6152 14.5192 59.3285 14.6358 59.1103 14.8369C58.9136 15.055 58.7948 15.3287 58.7716 15.6175C58.7815 15.9287 58.901 16.2273 59.1103 16.4637C59.3285 16.6647 59.6152 16.7813 59.9162 16.7916C60.2373 16.781 60.5452 16.6654 60.7898 16.4637C60.9971 16.2267 61.1143 15.928 61.1217 15.6175C61.1029 15.329 60.9862 15.0545 60.7898 14.8369C60.5452 14.6351 60.2373 14.5195 59.9162 14.5089ZM56.9634 17.2443H56.8889C56.6798 17.2321 56.4741 17.1878 56.2794 17.1131C56.0922 16.9864 55.9521 16.8047 55.8798 16.5948L56.3471 16.4637C56.3471 16.5293 56.4825 16.6604 56.5503 16.726C56.6644 16.7414 56.7774 16.7633 56.8889 16.7916C57.0551 16.7974 57.2189 16.7514 57.3562 16.6604C57.4184 16.6297 57.4704 16.5827 57.5063 16.5247C57.5423 16.4667 57.5606 16.4001 57.5594 16.3325C57.5594 16.1357 57.3562 16.011 56.8821 15.8798C56.2049 15.6831 55.873 15.3551 55.873 14.9025C55.8697 14.7599 55.9048 14.619 55.9749 14.4936C56.0449 14.3682 56.1476 14.2627 56.2726 14.1875C56.501 14.0772 56.7569 14.0318 57.0108 14.0563C57.3347 14.0527 57.6476 14.1702 57.8844 14.3842L57.4849 14.7057C57.4298 14.6364 57.3573 14.5819 57.2743 14.5474C57.1913 14.513 57.1006 14.4997 57.0108 14.5089C56.8741 14.4991 56.737 14.5216 56.6112 14.5745C56.541 14.619 56.4808 14.6769 56.4343 14.7445C56.3877 14.8121 56.3558 14.8882 56.3403 14.9681C56.3403 15.1648 56.6112 15.2895 57.0176 15.4207C57.343 15.5026 57.6429 15.6602 57.8912 15.8798C57.9996 16.031 58.0477 16.2151 58.0267 16.3981C58.021 16.5236 57.9886 16.6467 57.9315 16.7596C57.8744 16.8725 57.7938 16.9727 57.6948 17.054C57.4746 17.1835 57.2209 17.2495 56.9634 17.2443ZM54.0038 14.0563V17.2443H55.6157V16.726H54.4779V15.8798H55.3515V15.4207H54.4779V14.5745H55.6157V14.0563H54.0038ZM52.9338 15.8142C53.0195 15.788 53.099 15.7455 53.1676 15.6892C53.2362 15.6329 53.2925 15.5639 53.3333 15.4863C53.469 15.3462 53.542 15.16 53.5365 14.9681C53.521 14.7269 53.4261 14.497 53.2656 14.3121C53.074 14.1578 52.837 14.066 52.5884 14.0497H51.3829V17.2377H51.8569V15.8798H52.392L53.1302 17.2443H53.672L52.9338 15.8142ZM51.8569 15.4207V14.5745H52.5951C52.7306 14.5745 52.7983 14.5745 52.866 14.7057C52.9338 14.8369 52.9947 14.8369 52.9947 14.9681C52.9947 15.0992 52.9947 15.2304 52.866 15.2895C52.8338 15.3295 52.7928 15.362 52.7459 15.3847C52.699 15.4074 52.6475 15.4197 52.5951 15.4207H51.8569ZM48.7619 17.2443H48.6942C48.4851 17.2321 48.2794 17.1878 48.0847 17.1131C47.8975 16.9864 47.7574 16.8047 47.6851 16.5948L48.1524 16.4637C48.1619 16.52 48.1853 16.5733 48.2207 16.619C48.2561 16.6647 48.3024 16.7014 48.3556 16.726C48.491 16.726 48.5587 16.7916 48.6942 16.7916C48.8589 16.7868 49.0197 16.7417 49.1615 16.6604C49.2237 16.6297 49.2757 16.5827 49.3116 16.5247C49.3476 16.4667 49.3659 16.4001 49.3647 16.3325C49.3647 16.1357 49.1615 16.011 48.6874 15.8798C48.0102 15.6831 47.6783 15.3551 47.6783 14.9025C47.6757 14.7593 47.7118 14.6179 47.7831 14.4925C47.8544 14.3671 47.9584 14.2619 48.0847 14.1875C48.3151 14.076 48.5735 14.0305 48.8296 14.0563C49.1489 14.0657 49.4551 14.1816 49.6965 14.3842L49.2969 14.7057C49.2383 14.6421 49.1662 14.5917 49.0855 14.5577C49.0049 14.5237 48.9176 14.5071 48.8296 14.5089C48.6907 14.4985 48.5512 14.521 48.4233 14.5745C48.3446 14.6089 48.2774 14.664 48.2295 14.7336C48.1816 14.8032 48.1549 14.8844 48.1524 14.9681C48.1524 15.1648 48.3556 15.2895 48.8296 15.4207C49.1525 15.504 49.4498 15.6615 49.6965 15.8798C49.7738 16.0432 49.8197 16.2188 49.832 16.3981C49.8263 16.5236 49.7939 16.6467 49.7368 16.7596C49.6797 16.8725 49.5991 16.9727 49.5001 17.054C49.278 17.1847 49.0217 17.2508 48.7619 17.2443ZM46.3441 17.2443H46.2764C46.0673 17.2321 45.8616 17.1878 45.6669 17.1131C45.4797 16.9864 45.3396 16.8047 45.2673 16.5948L45.7346 16.4637C45.7346 16.5293 45.8701 16.6604 45.9378 16.726C46.0519 16.7414 46.165 16.7633 46.2764 16.7916C46.4426 16.7974 46.6064 16.7514 46.7437 16.6604C46.8059 16.6297 46.8579 16.5827 46.8939 16.5247C46.9298 16.4667 46.9482 16.4001 46.9469 16.3325C46.9469 16.1357 46.7437 16.011 46.2696 15.8798C45.5924 15.6831 45.2605 15.3551 45.2605 14.9025C45.2572 14.7599 45.2923 14.619 45.3624 14.4936C45.4325 14.3682 45.5351 14.2627 45.6601 14.1875C45.8905 14.076 46.1489 14.0305 46.4051 14.0563C46.7268 14.0537 47.0372 14.1712 47.272 14.3842L46.8724 14.7057C46.8138 14.6421 46.7416 14.5917 46.661 14.5577C46.5803 14.5237 46.493 14.5071 46.4051 14.5089C46.2661 14.4985 46.1267 14.521 45.9987 14.5745C45.9285 14.619 45.8684 14.6769 45.8218 14.7445C45.7753 14.8121 45.7433 14.8882 45.7278 14.9681C45.7278 15.1648 45.9987 15.2895 46.4051 15.4207C46.7279 15.504 47.0253 15.6615 47.272 15.8798C47.3819 16.0328 47.4301 16.2195 47.4074 16.4046C47.4018 16.5302 47.3694 16.6533 47.3123 16.7662C47.2552 16.8791 47.1746 16.9793 47.0756 17.0606C46.8566 17.1866 46.6055 17.2502 46.3509 17.2443H46.3441ZM43.3439 14.0563V17.2443H45.0235V16.726H43.8654V15.8798H44.739V15.4207H43.8654V14.5745H45.0032V14.0563H43.3439ZM42.3416 14.0563V16.3325L40.9871 14.0563H40.4521V17.2443H40.9194V14.9681L42.3348 17.2443H42.8698V14.0563H42.3416ZM39.9238 14.0563H39.4497V17.2443H39.9238V14.0563ZM37.9259 17.2443H37.8582C37.6513 17.232 37.4478 17.1877 37.2554 17.1131C37.0643 16.9888 36.9214 16.8065 36.8491 16.5948L37.3232 16.4637C37.3232 16.5293 37.4586 16.6604 37.5263 16.726C37.6381 16.742 37.7489 16.7639 37.8582 16.7916C38.0266 16.7978 38.1927 16.7519 38.3323 16.6604C38.3927 16.6282 38.4429 16.5807 38.4775 16.5229C38.5121 16.4651 38.5298 16.3993 38.5287 16.3325C38.5287 16.1357 38.3323 16.011 37.8514 15.8798C37.1742 15.6831 36.8423 15.3551 36.8423 14.9025C36.839 14.7592 36.8749 14.6176 36.9462 14.492C37.0176 14.3665 37.1219 14.2614 37.2487 14.1875C37.4763 14.0751 37.7329 14.0295 37.9869 14.0563C38.3106 14.0541 38.6229 14.1713 38.8605 14.3842L38.4542 14.7057C38.3965 14.6411 38.3245 14.5899 38.2436 14.5558C38.1628 14.5218 38.075 14.5057 37.9869 14.5089C37.8479 14.4985 37.7085 14.521 37.5805 14.5745C37.4454 14.6696 37.3513 14.8098 37.3164 14.9681C37.3164 15.1648 37.5805 15.2895 37.9936 15.4207C38.3178 15.5057 38.617 15.6629 38.8673 15.8798C38.9757 16.031 39.0238 16.2151 39.0028 16.3981C38.9971 16.5243 38.964 16.648 38.9057 16.761C38.8473 16.874 38.765 16.9739 38.6641 17.054C38.442 17.1847 38.1857 17.2508 37.9259 17.2443ZM35.305 17.2443C35.1496 17.2523 34.9942 17.2295 34.8482 17.1774C34.7023 17.1253 34.5688 17.0449 34.456 16.9412C34.3431 16.8374 34.2533 16.7125 34.192 16.574C34.1307 16.4355 34.0992 16.2864 34.0995 16.1357V14.0563H34.6345V16.1357C34.6321 16.2219 34.649 16.3076 34.6841 16.3868C34.7192 16.4661 34.7716 16.5371 34.8377 16.5948C34.8917 16.6636 34.963 16.7178 35.0448 16.7523C35.1266 16.7867 35.2162 16.8003 35.305 16.7916C35.4824 16.784 35.6509 16.714 35.779 16.5948C35.8638 16.4554 35.9104 16.2974 35.9145 16.1357V14.0563H36.4495V16.1357C36.4513 16.2813 36.4222 16.4258 36.3639 16.56C36.3057 16.6943 36.2196 16.8156 36.1109 16.9163C36.0118 17.0205 35.8914 17.1035 35.7573 17.16C35.6231 17.2164 35.4783 17.2451 35.3321 17.2443H35.305ZM31.5462 17.2443V14.0563H32.5553C32.8037 14.0739 33.0402 14.1655 33.2326 14.3186C33.3254 14.4015 33.3979 14.5034 33.4447 14.6169C33.4916 14.7304 33.5117 14.8526 33.5035 14.9746C33.5119 15.0802 33.4982 15.1863 33.4633 15.2866C33.4284 15.3869 33.373 15.4793 33.3003 15.5584C33.4253 15.6344 33.5188 15.7505 33.5644 15.8864C33.6492 16.0234 33.6958 16.1794 33.6999 16.339C33.7075 16.4604 33.6878 16.5819 33.6422 16.6951C33.5966 16.8084 33.5262 16.9107 33.4358 16.995C33.2434 17.1481 33.0068 17.2397 32.7585 17.2574L31.5462 17.2443ZM32.0135 16.726H32.7788C32.8422 16.7341 32.9066 16.7263 32.9659 16.7033C33.0252 16.6804 33.0774 16.643 33.1175 16.5948C33.1588 16.5636 33.1924 16.5239 33.2158 16.4785C33.2392 16.4331 33.2519 16.3832 33.2529 16.3325C33.2515 16.2125 33.2031 16.0976 33.1175 16.011C32.982 15.9454 32.9143 15.8798 32.7788 15.8798H32.0406L32.0135 16.726ZM32.0135 15.4141H32.5553C32.6789 15.4115 32.7971 15.3648 32.8872 15.2829C32.9728 15.1963 33.0213 15.0814 33.0226 14.9615C33.0216 14.9108 33.009 14.8609 32.9855 14.8155C32.9621 14.7701 32.9285 14.7303 32.8872 14.6991C32.8195 14.5679 32.6908 14.5679 32.5553 14.5679H32.0135V15.4141Z" fill="white"/>
<path d="M33.1175 4.88587H35.3321C35.5092 4.89087 35.6852 4.85822 35.8479 4.79022C36.0105 4.72222 36.1558 4.62053 36.2735 4.49229C36.4191 4.37583 36.5324 4.22611 36.6034 4.05663C36.6743 3.88715 36.7006 3.70323 36.6798 3.52146C36.6948 3.33919 36.666 3.15604 36.5954 2.98643C36.5249 2.81682 36.4147 2.66539 36.2735 2.54407C36.1558 2.41583 36.0105 2.31414 35.8479 2.24614C35.6852 2.17814 35.5092 2.14549 35.3321 2.15049H33.1175V4.88587ZM33.1175 10.4813H31.5734V0.66145H35.3321C36.1126 0.67921 36.8574 0.981377 37.418 1.50765C37.9436 2.05644 38.2321 2.7795 38.2239 3.52802C38.2343 3.89869 38.1683 4.26765 38.03 4.61339C37.8916 4.95913 37.6836 5.27474 37.418 5.54183C37.1495 5.81479 36.8256 6.0309 36.4666 6.17654C36.1076 6.32219 35.7213 6.39419 35.3321 6.38803H33.1175V10.4813ZM40.9736 4.88587V2.15049H43.1272C43.3133 2.14589 43.4983 2.17846 43.6707 2.24618C43.8432 2.31389 43.9994 2.4153 44.1296 2.54407C44.3897 2.80716 44.5352 3.15718 44.5359 3.52146C44.5435 3.70262 44.5123 3.88334 44.4443 4.05223C44.3762 4.22112 44.2727 4.3745 44.1403 4.50271C44.0079 4.63091 43.8496 4.73115 43.6752 4.7971C43.5009 4.86304 43.3143 4.89327 43.1272 4.88587H40.9736ZM44.3598 6.11908C44.8861 5.90886 45.3329 5.54705 45.6398 5.08266C45.9432 4.61712 46.0877 4.07095 46.0529 3.52146C46.0601 3.1444 45.9862 2.77002 45.8358 2.42217C45.6853 2.07433 45.4618 1.76064 45.1793 1.50109C44.6351 0.971855 43.8983 0.670401 43.1272 0.66145H39.4295V10.5009H40.9736V6.38147H42.7209L44.9355 10.5009H46.6151L44.3598 6.11908ZM52.1482 2.08489C51.6673 2.07172 51.1891 2.15792 50.7454 2.33777C50.3016 2.51761 49.9025 2.78696 49.5746 3.12788C49.2321 3.44837 48.9602 3.83269 48.7751 4.2577C48.59 4.68271 48.4957 5.13961 48.4978 5.60087C48.5065 6.53039 48.8934 7.41906 49.5746 8.07386C49.9031 8.41359 50.3025 8.68172 50.7462 8.86042C51.1899 9.03911 51.6678 9.12429 52.1482 9.11028C52.6248 9.12654 53.0994 9.04227 53.5391 8.86331C53.9788 8.68436 54.3731 8.41499 54.6946 8.07386C55.044 7.75851 55.3206 7.37514 55.5062 6.94893C55.6918 6.52273 55.7822 6.06332 55.7715 5.60087C55.7875 5.13774 55.6995 4.67676 55.5136 4.24979C55.3276 3.82282 55.0482 3.44003 54.6946 3.12788C54.3734 2.78591 53.9793 2.51555 53.5397 2.33547C53.1 2.1554 52.6253 2.06991 52.1482 2.08489ZM52.1482 10.6124C51.4698 10.6163 50.7977 10.4856 50.1734 10.2283C49.5491 9.97113 48.9858 9.59287 48.5181 9.11684C48.0269 8.6651 47.6364 8.12063 47.3708 7.51704C47.1052 6.91344 46.9702 6.26354 46.974 5.60743C46.9794 4.26276 47.5346 2.97493 48.5181 2.02586C48.9898 1.55896 49.5553 1.19061 50.1796 0.943534C50.8039 0.69646 51.4739 0.575901 52.1482 0.589294C52.831 0.575406 53.5098 0.694868 54.1439 0.940554C54.778 1.18624 55.3546 1.55312 55.8392 2.0193C56.3133 2.49409 56.686 3.05487 56.9359 3.66948C57.1857 4.28409 57.3079 4.94044 57.2953 5.60087C57.3115 6.25271 57.1887 6.90079 56.9347 7.50461C56.6807 8.10844 56.3008 8.65504 55.8189 9.11028C55.3412 9.58441 54.7703 9.96103 54.1398 10.2179C53.5093 10.4748 52.8321 10.6067 52.1482 10.6059V10.6124ZM61.4129 10.6124H61.2098C60.5726 10.5837 59.9522 10.4059 59.4015 10.0942C58.7648 9.78724 58.2783 9.25005 58.047 8.59863L59.5234 8.08042C59.5768 8.24772 59.6642 8.40299 59.7805 8.53705C59.8969 8.67111 60.0397 8.78127 60.2007 8.86102C60.5387 9.00748 60.9011 9.09412 61.2707 9.11684C61.8039 9.14913 62.3303 8.98775 62.7471 8.66423C63.0355 8.46208 63.2301 8.1581 63.2889 7.81803C63.2889 7.16207 62.6117 6.70945 61.203 6.32243C59.0561 5.73862 58.047 4.69564 58.1147 3.33123C58.1009 2.88493 58.2127 2.4434 58.4382 2.05396C58.6637 1.66453 58.9943 1.34189 59.3947 1.12063C60.0734 0.703065 60.8771 0.518268 61.6771 0.595854C62.1673 0.601119 62.6515 0.701995 63.1006 0.89246C63.5498 1.08293 63.9547 1.35908 64.2912 1.70444L63.1399 2.67526C62.9438 2.48128 62.7084 2.3287 62.4485 2.2271C62.1886 2.1255 61.9098 2.07708 61.6297 2.08489C61.2146 2.04255 60.7955 2.11059 60.4174 2.28168C60.189 2.37599 59.9918 2.52926 59.8473 2.72477C59.7028 2.92028 59.6165 3.15049 59.5979 3.39027C59.5979 3.97407 60.2752 4.49229 61.6838 4.88587C62.696 5.10565 63.6107 5.629 64.298 6.38147C64.6454 6.80772 64.8361 7.33403 64.8398 7.87707C64.815 8.27126 64.6955 8.6544 64.4909 8.99603C64.2864 9.33765 64.0023 9.62833 63.6614 9.84496C63.0265 10.3585 62.2195 10.6292 61.3926 10.6059L61.4129 10.6124ZM67.5895 4.89243H69.8108C69.9869 4.89736 70.1619 4.86465 70.3235 4.79663C70.485 4.7286 70.6291 4.62693 70.7454 4.49885C70.8997 4.38634 71.0235 4.23919 71.1061 4.07007C71.1887 3.90096 71.2276 3.71493 71.2195 3.52802C71.2212 3.3411 71.1795 3.1562 71.0974 2.98701C71.0154 2.81782 70.8951 2.66868 70.7454 2.55063C70.6291 2.42255 70.485 2.32088 70.3235 2.25285C70.1619 2.18483 69.9869 2.15212 69.8108 2.15705H67.5691L67.5895 4.89243ZM67.5895 10.4878H66.025V0.66145H69.7905C70.5693 0.677611 71.3127 0.980136 71.8697 1.50765C72.4141 2.04989 72.7263 2.77179 72.7433 3.52802C72.7414 3.90281 72.6632 4.27357 72.5133 4.6191C72.3634 4.96464 72.1447 5.27818 71.8697 5.54183C71.603 5.81525 71.2803 6.03174 70.9223 6.17745C70.5643 6.32316 70.1788 6.39488 69.7905 6.38803H67.5691L67.5895 10.4878ZM73.9691 0.648331V10.5009H79.1433V8.98565H75.52V6.31587H78.3374V4.82027H75.52V2.15049H79.1433V0.66145L73.9691 0.648331ZM90.2231 0.648331V2.15049H92.309V10.5009H93.8532V2.15049H96V0.66145L90.2231 0.648331ZM89.8235 8.45432L89.6881 8.7167C89.1889 9.33361 88.5429 9.82426 87.8053 10.1467C87.0323 10.5116 86.1794 10.6894 85.3198 10.6649C84.5557 10.6944 83.7944 10.5583 83.0914 10.2667C82.3884 9.97505 81.7615 9.53516 81.2563 8.97909C80.3843 8.03167 79.9065 6.80447 79.9154 5.53527C79.8946 4.8679 80.023 4.20406 80.2919 3.58926C80.5607 2.97446 80.9637 2.42324 81.473 1.97338C81.9821 1.49179 82.5866 1.11505 83.25 0.865896C83.9135 0.616743 84.6222 0.500336 85.3334 0.523698C85.7645 0.502278 86.1964 0.546548 86.6134 0.654891C87.036 0.716197 87.4441 0.849443 87.8189 1.04847C88.5612 1.39354 89.207 1.9065 89.7016 2.54407L89.8371 2.7999L88.6248 3.71169L88.4284 3.45586C88.0766 2.98521 87.6117 2.60471 87.0739 2.34728C86.5263 2.10621 85.9276 1.99384 85.3266 2.0193C84.6487 2.0076 83.9791 2.16577 83.3829 2.47847C82.8337 2.8096 82.3703 3.25844 82.0284 3.7904C81.7058 4.34663 81.5422 4.97612 81.5543 5.61399C81.5394 6.10384 81.6317 6.5912 81.8252 7.04399C81.9895 7.4885 82.264 7.88717 82.6244 8.20505C82.7742 8.36744 82.9561 8.49905 83.1594 8.59207C83.3713 8.72632 83.5986 8.83638 83.8366 8.92005C84.3293 9.10153 84.8538 9.18842 85.3808 9.17588C85.9586 9.1939 86.533 9.08397 87.0604 8.85446C87.5801 8.59927 88.041 8.24443 88.4148 7.81147L88.6112 7.61468L89.8235 8.45432ZM80.4639 0.0054851C80.5813 -0.0116252 80.7011 0.0115824 80.8026 0.0710816C80.938 0.136678 81.0057 0.267871 81.0735 0.333468C81.1494 0.450376 81.1958 0.582966 81.2089 0.720487C81.1822 0.836124 81.1364 0.946857 81.0735 1.04847C81.0006 1.14953 80.9087 1.23633 80.8026 1.3043C80.7011 1.3638 80.5813 1.387 80.4639 1.36989C80.3491 1.37957 80.2338 1.35679 80.1321 1.3043C80.0259 1.23633 79.934 1.14953 79.8612 1.04847C79.8122 0.945866 79.789 0.833463 79.7935 0.720487C79.7822 0.588023 79.8055 0.454947 79.8612 0.333468C79.9289 0.267871 79.9966 0.136678 80.1321 0.0710816C80.2338 0.0185917 80.3491 -0.00419403 80.4639 0.0054851ZM80.4639 0.136678C80.3707 0.127871 80.2772 0.151089 80.1998 0.202275C80.0644 0.267871 79.9966 0.333468 79.9966 0.399064C79.9289 0.523698 79.8612 0.589294 79.8612 0.720487C79.8612 0.85168 79.9289 0.917277 79.9289 0.982873C80.0061 1.0639 80.0979 1.13059 80.1998 1.17966C80.2791 1.22619 80.3717 1.24688 80.4639 1.2387C80.5802 1.24758 80.6968 1.22725 80.8026 1.17966L81.0057 0.982873C81.0596 0.905906 81.0836 0.812952 81.0735 0.720487C81.0847 0.609192 81.0611 0.497203 81.0057 0.399064C80.9286 0.318038 80.8368 0.251347 80.7348 0.202275C80.6671 0.136678 80.5926 0.136678 80.4639 0.136678ZM80.1998 1.04847V0.333468H80.5926C80.6604 0.399064 80.6603 0.399064 80.7281 0.399064V0.523698C80.7281 0.589294 80.7281 0.654891 80.6603 0.654891C80.5926 0.654891 80.5926 0.720487 80.5249 0.720487L80.5926 0.786084L80.7281 0.917277L80.7958 1.04847H80.6603L80.5926 0.982873C80.5576 0.911235 80.512 0.844938 80.4572 0.786084H80.2608V1.04847H80.1998ZM80.2675 0.654891H80.5926V0.458101H80.2608L80.2675 0.654891Z" fill="white"/>
<path d="M24.3877 0.65489H24.855V21.9934H24.3877V0.65489Z" fill="white"/>
<path d="M8.80423 1.89466L0.880423 5.83046L2.2891 6.51266L8.80423 3.39027L15.3871 6.51266L16.7958 5.79766L8.80423 1.89466ZM8.20148 11.0782L0 6.64385V16.2013L8.19471 20.629L8.20148 11.0782ZM9.55598 20.5766L17.683 16.2144V6.64385L9.55598 10.9995V20.5766Z" fill="white"/>
</svg>
