<svg width="32" height="31" viewBox="0 0 32 31" fill="none" xmlns="http://www.w3.org/2000/svg">
<rect width="31.9804" height="30.762" fill="black" fill-opacity="0"/>
<rect width="31.9804" height="23.7583" fill="black" fill-opacity="0" transform="translate(0 7.00366)"/>
<path d="M30.55 9.21194L28.56 7.55194C28.4098 7.44578 28.2238 7.40305 28.0422 7.433C27.8607 7.46294 27.6983 7.56315 27.59 7.71194C27.4828 7.86099 27.4385 8.04619 27.4666 8.22763C27.4946 8.40907 27.5928 8.57222 27.74 8.68193L29.73 10.3319C30.27 10.7219 30.59 11.3619 30.59 12.0519V27.2819C30.59 28.4319 29.71 29.3719 28.62 29.3719H3.35004C2.27004 29.3719 1.39004 28.4319 1.39004 27.2819V12.0519C1.39004 11.3619 1.71004 10.7219 2.25004 10.3319L5.10004 8.26193C5.24726 8.15222 5.34548 7.98907 5.37354 7.80763C5.4016 7.62619 5.35724 7.44098 5.25004 7.29193C5.14183 7.14314 4.97939 7.04294 4.79786 7.013C4.61633 6.98305 4.43031 7.02578 4.28004 7.13194L1.43005 9.21194C0.984389 9.5388 0.622471 9.96654 0.37392 10.4602C0.125368 10.9538 -0.00275266 11.4993 4.48464e-05 12.0519V27.2819C4.48464e-05 29.2019 1.50004 30.7619 3.35004 30.7619H28.62C29.5263 30.7435 30.3884 30.3672 31.018 29.7151C31.6476 29.063 31.9934 28.1882 31.98 27.2819V12.0519C31.98 10.9219 31.44 9.86194 30.55 9.21194Z" fill="#3970F2"/>
<rect width="12.8266" height="4.04197" fill="black" fill-opacity="0" transform="translate(10.0018)"/>
<path d="M22.54 2.76196L20.63 1.37196C19.4093 0.480441 17.9367 0 16.425 0C14.9134 0 13.4408 0.480441 12.22 1.37196L10.29 2.78197C10.1413 2.89018 10.041 3.05262 10.0111 3.23415C9.98116 3.41567 10.0239 3.6017 10.13 3.75197C10.1952 3.84211 10.2809 3.91543 10.38 3.96587C10.4791 4.0163 10.5888 4.04238 10.7 4.04196C10.84 4.04196 10.98 3.99196 11.1 3.90196L13.04 2.50197C14.0231 1.78057 15.2107 1.39159 16.43 1.39159C17.6494 1.39159 18.837 1.78057 19.82 2.50197L21.73 3.89197C21.8803 3.99812 22.0663 4.04085 22.2479 4.01091C22.4294 3.98097 22.5918 3.88075 22.7 3.73196C22.8062 3.5817 22.8489 3.39569 22.819 3.21416C22.789 3.03263 22.6888 2.87018 22.54 2.76196Z" fill="#3970F2"/>
<rect width="26.4157" height="8.45886" fill="black" fill-opacity="0" transform="translate(2.99829 12.0002)"/>
<path d="M29.3001 12.312C29.2506 12.2352 29.1862 12.1692 29.1107 12.1179C29.0351 12.0665 28.95 12.0309 28.8604 12.0132C28.7708 11.9955 28.6786 11.9959 28.5892 12.0146C28.4998 12.0333 28.4151 12.0699 28.3401 12.122L19.3401 18.112C18.4143 18.7328 17.3248 19.0643 16.2101 19.0643C15.0954 19.0643 14.0059 18.7328 13.0801 18.112L4.08007 12.122C4.0051 12.0699 3.92038 12.0333 3.83098 12.0146C3.74158 11.9959 3.64932 11.9955 3.55973 12.0132C3.47013 12.0309 3.38502 12.0665 3.30949 12.1179C3.23395 12.1692 3.16953 12.2352 3.12007 12.312C3.06791 12.387 3.0314 12.4717 3.0127 12.5611C2.994 12.6505 2.9935 12.7428 3.01123 12.8324C3.02896 12.922 3.06456 13.0071 3.11591 13.0826C3.16725 13.1581 3.23329 13.2226 3.31007 13.272L12.3101 19.272C13.4635 20.0459 14.8211 20.4591 16.2101 20.4591C17.5991 20.4591 18.9566 20.0459 20.1101 19.272L29.1101 13.272C29.2609 13.1686 29.3652 13.0102 29.4007 12.8307C29.4362 12.6513 29.4001 12.4651 29.3001 12.312Z" fill="#3970F2"/>
<rect width="23.65" height="11.9035" fill="black" fill-opacity="0" transform="translate(4.99506 3.00195)"/>
<path d="M27.9401 3.00195H5.70006C5.51441 3.00195 5.33636 3.07571 5.20508 3.20699C5.07381 3.33826 5.00006 3.5163 5.00006 3.70195V14.1219C4.98825 14.2202 4.99741 14.3199 5.02695 14.4143C5.05648 14.5088 5.10571 14.5959 5.17139 14.67C5.23706 14.744 5.3177 14.8033 5.40797 14.8439C5.49823 14.8845 5.59608 14.9055 5.69506 14.9055C5.79403 14.9055 5.89188 14.8845 5.98215 14.8439C6.07241 14.8033 6.15305 14.744 6.21873 14.67C6.2844 14.5959 6.33363 14.5088 6.36317 14.4143C6.3927 14.3199 6.40186 14.2202 6.39006 14.1219V4.39195H27.2501V13.1219C27.2382 13.2202 27.2474 13.3199 27.2769 13.4143C27.3065 13.5088 27.3557 13.5959 27.4214 13.67C27.4871 13.744 27.5677 13.8033 27.658 13.8439C27.7482 13.8845 27.8461 13.9055 27.9451 13.9055C28.044 13.9055 28.1419 13.8845 28.2321 13.8439C28.3224 13.8033 28.403 13.744 28.4687 13.67C28.5344 13.5959 28.5836 13.5088 28.6132 13.4143C28.6427 13.3199 28.6519 13.2202 28.6401 13.1219V3.70195C28.6401 3.5163 28.5663 3.33826 28.435 3.20699C28.3038 3.07571 28.1257 3.00195 27.9401 3.00195Z" fill="#3970F2"/>
<rect width="6.9552" height="6.95" fill="black" fill-opacity="0" transform="translate(13.0001 7.00195)"/>
<path d="M16.5701 9.79195L16.4301 9.77196C14.4101 9.52196 14.3901 9.09195 14.3901 9.09195C14.3901 8.91195 15.1301 8.39195 16.4801 8.39195C17.7801 8.39195 18.5401 8.88195 18.5701 9.08195C18.6101 9.47195 18.9601 9.73196 19.3401 9.69196C19.4313 9.68082 19.5195 9.6518 19.5996 9.60657C19.6797 9.56133 19.75 9.50076 19.8067 9.42833C19.8633 9.35589 19.9051 9.27302 19.9297 9.18442C19.9543 9.09582 19.9612 9.00323 19.9501 8.91196C19.8101 7.80196 18.3501 7.00195 16.4801 7.00195C14.4901 7.00195 13.0001 7.90195 13.0001 9.09195C13.0001 10.7519 15.3701 11.042 16.3801 11.162L16.5301 11.1819C18.5401 11.4319 18.5601 11.8619 18.5601 11.8719C18.5601 12.0019 17.8901 12.562 16.4701 12.562C15.1701 12.562 14.4101 12.0719 14.3901 11.8719C14.3651 11.6887 14.2696 11.5225 14.1239 11.4085C13.9783 11.2946 13.7939 11.242 13.6101 11.2619C13.4275 11.2869 13.2622 11.3827 13.1499 11.5287C13.0375 11.6747 12.9873 11.8591 13.0101 12.0419C13.1501 13.1519 14.6001 13.952 16.4701 13.952C18.4601 13.952 19.9501 13.0619 19.9501 11.8719C19.9501 10.2019 17.5901 9.91195 16.5701 9.79195Z" fill="#3970F2"/>
<rect width="1.39" height="9" fill="black" fill-opacity="0" transform="translate(16.0001 6.00195)"/>
<path d="M16.7001 6.00195C16.3101 6.00195 16.0001 6.29195 16.0001 6.64195V14.362C16.0001 14.712 16.3101 15.002 16.7001 15.002C17.0801 15.002 17.3901 14.712 17.3901 14.362V6.64195C17.3901 6.29195 17.0801 6.00195 16.7001 6.00195Z" fill="#3970F2"/>
<rect width="10.377" height="1.4" fill="black" fill-opacity="0" transform="translate(10.9165 16.9969)"/>
<path d="M20.51 17.0019H11.7C11.6018 16.9901 11.5021 16.9993 11.4076 17.0288C11.3132 17.0584 11.226 17.1076 11.152 17.1733C11.0779 17.239 11.0187 17.3196 10.9781 17.4099C10.9375 17.5001 10.9165 17.598 10.9165 17.697C10.9165 17.7959 10.9375 17.8938 10.9781 17.984C11.0187 18.0743 11.0779 18.1549 11.152 18.2206C11.226 18.2863 11.3132 18.3355 11.4076 18.3651C11.5021 18.3946 11.6018 18.4038 11.7 18.3919H20.51C20.6083 18.4038 20.7079 18.3946 20.8024 18.3651C20.8969 18.3355 20.984 18.2863 21.058 18.2206C21.1321 18.1549 21.1914 18.0743 21.232 17.984C21.2725 17.8938 21.2935 17.7959 21.2935 17.697C21.2935 17.598 21.2725 17.5001 21.232 17.4099C21.1914 17.3196 21.1321 17.239 21.058 17.1733C20.984 17.1076 20.8969 17.0584 20.8024 17.0288C20.7079 16.9993 20.6083 16.9901 20.51 17.0019Z" fill="#3970F2"/>
</svg>
