<svg width="55" height="55" viewBox="0 0 55 55" fill="none" xmlns="http://www.w3.org/2000/svg">
<path d="M15.2813 15.2805C15.7531 14.8092 16.5177 14.8094 16.9891 15.2813L17.0603 15.3525C17.5316 15.8243 17.5312 16.5889 17.0595 17.0602C16.8236 17.2958 16.5147 17.4135 16.206 17.4135C15.8968 17.4135 15.5876 17.2954 15.3518 17.0594L15.2807 16.9882C14.8093 16.5163 14.8097 15.7517 15.2813 15.2805ZM26.326 11.4272V11.5278C26.326 12.1947 26.8666 12.7353 27.5335 12.7353C28.2005 12.7353 28.7411 12.1947 28.7411 11.5278V11.4272C28.7411 10.7602 28.2005 10.2196 27.5335 10.2196C26.8666 10.2196 26.326 10.7602 26.326 11.4272ZM43.4723 26.259C42.8053 26.259 42.2648 26.7996 42.2648 27.4665C42.2648 28.1335 42.8053 28.674 43.4723 28.674H43.5729C44.2399 28.674 44.7804 28.1335 44.7804 27.4665C44.7804 26.7996 44.2399 26.259 43.5729 26.259H43.4723ZM23.3129 4.18741C23.3129 1.8785 25.1912 0 27.5 0C29.809 0 31.6875 1.87837 31.6875 4.18741C31.6875 6.49619 29.809 8.37456 27.5 8.37456C25.1912 8.37456 23.3129 6.49619 23.3129 4.18741ZM25.7279 4.18741C25.7279 5.16456 26.5229 5.95952 27.5 5.95952C28.4773 5.95952 29.2725 5.16456 29.2725 4.18741C29.2725 3.21013 28.4773 2.41504 27.5 2.41504C26.5229 2.41504 25.7279 3.21013 25.7279 4.18741ZM41.0239 13.9764C40.2328 13.1855 39.7973 12.134 39.7973 11.0155C39.7973 9.8971 40.2328 8.84549 41.0237 8.0547C42.6566 6.422 45.3127 6.422 46.9455 8.0547C48.5779 9.6874 48.5779 12.3438 46.9455 13.9764C46.1292 14.7925 45.0568 15.2007 43.9847 15.2007C42.9123 15.2007 41.8401 14.7927 41.0239 13.9764ZM42.2123 11.0155C42.2123 11.4889 42.3967 11.9339 42.7313 12.2687C43.4224 12.9596 44.5466 12.9595 45.2378 12.2687C45.9286 11.5777 45.9286 10.4534 45.2377 9.76227C44.8923 9.41678 44.4383 9.2441 43.9845 9.2441C43.5307 9.2441 43.0769 9.41678 42.7314 9.76227C42.3967 10.0972 42.2123 10.5422 42.2123 11.0155ZM8.05464 13.9762C6.42208 12.3434 6.42208 9.68713 8.05477 8.05456C9.68733 6.42173 12.344 6.422 13.9765 8.05456C15.6091 9.687 15.6091 12.3434 13.9765 13.9761C13.1855 14.767 12.1341 15.2027 11.0156 15.2027C9.89717 15.2028 8.84569 14.7672 8.05464 13.9762ZM9.76246 12.2685C10.4534 12.9596 11.5778 12.9594 12.2689 12.2685C12.9598 11.5776 12.9598 10.4532 12.2689 9.76227C11.5779 9.07129 10.4536 9.07116 9.76246 9.76227C9.07136 10.4532 9.07136 11.5776 9.76246 12.2685ZM38.7943 17.4135C39.1036 17.4135 39.413 17.2953 39.6489 17.059L39.7199 16.9879C40.1909 16.5159 40.1903 15.7514 39.7183 15.2802C39.2461 14.8092 38.4818 14.8097 38.0104 15.2818L37.9395 15.353C37.4684 15.825 37.4691 16.5895 37.9411 17.0607C38.1771 17.296 38.4857 17.4135 38.7943 17.4135ZM31.6875 50.8127C31.6875 53.1216 29.809 55 27.5 55C25.1912 55 23.3129 53.1216 23.3129 50.8127C23.3129 48.5039 25.1912 46.6254 27.5 46.6254C29.809 46.6254 31.6875 48.5039 31.6875 50.8127ZM29.2725 50.8127C29.2725 49.8354 28.4773 49.0405 27.5 49.0405C26.5229 49.0405 25.7279 49.8354 25.7279 50.8127C25.7279 51.79 26.5229 52.585 27.5 52.585C28.4773 52.5851 29.2725 51.79 29.2725 50.8127ZM11.4272 26.259C10.7603 26.259 10.2197 26.7996 10.2197 27.4665C10.2197 28.1335 10.7603 28.674 11.4272 28.674H11.5278C12.1948 28.674 12.7354 28.1335 12.7354 27.4665C12.7354 26.7996 12.1948 26.259 11.5278 26.259H11.4272ZM46.9452 41.0236C48.5778 42.6562 48.5779 45.3127 46.9454 46.9454C46.1291 47.7617 45.0568 48.1699 43.9845 48.1699C42.9123 48.1699 41.8401 47.7617 41.0239 46.9456C41.0237 46.9456 41.0237 46.9456 41.0237 46.9456C40.2328 46.1546 39.7973 45.103 39.7973 43.9846C39.7973 42.8662 40.2328 41.8145 41.0239 41.0236C42.6564 39.3912 45.3127 39.3913 46.9452 41.0236ZM45.2377 42.7313C44.547 42.0406 43.4226 42.0405 42.7313 42.7315C42.3967 43.0661 42.2123 43.5112 42.2123 43.9846C42.2123 44.4579 42.3967 44.903 42.7314 45.2379H42.7313C43.4222 45.9288 44.5467 45.9288 45.2378 45.2379C45.9286 44.5468 45.9286 43.4224 45.2377 42.7313ZM39.7196 38.0118L39.6486 37.9407C39.1772 37.4688 38.4126 37.4686 37.9408 37.9399C37.4691 38.4112 37.4687 39.1757 37.94 39.6476L38.011 39.7187C38.2469 39.9547 38.5561 40.0728 38.8652 40.0728C39.1741 40.0728 39.4829 39.9551 39.7187 39.7195C40.1905 39.2482 40.1909 38.4835 39.7196 38.0118ZM55 27.5001C55 29.809 53.1217 31.6875 50.8128 31.6875C48.5039 31.6875 46.6254 29.809 46.6254 27.5001C46.6254 25.1913 48.5039 23.3128 50.8128 23.3128C53.1217 23.3128 55 25.1912 55 27.5001ZM52.585 27.5001C52.585 26.5228 51.7899 25.7278 50.8128 25.7278C49.8355 25.7278 49.0404 26.5228 49.0404 27.5001C49.0404 28.4774 49.8355 29.2724 50.8128 29.2724C51.7899 29.2724 52.585 28.4774 52.585 27.5001ZM39.7428 28.1583V25.4819C39.7428 24.3706 38.7716 23.477 37.2767 23.1655C35.7401 19.2862 31.9422 16.5356 27.5227 16.5356C23.0977 16.5356 19.2697 19.2938 17.7367 23.1806C16.2824 23.5052 15.3243 24.3882 15.3243 25.4818V28.1582C15.3243 29.3213 16.3995 30.2462 18.0167 30.5144C18.3663 30.5727 18.7553 30.4738 19.0261 30.2442C19.2967 30.0148 19.4835 29.678 19.4835 29.3232V27.0122C19.4835 22.5669 23.0843 18.9504 27.5295 18.9504C31.9748 18.9504 35.5832 22.5669 35.5832 27.0122C35.5832 30.4641 33.4086 33.4573 30.2127 34.5839C29.8326 34.2631 29.3378 34.0404 28.8028 34.0404H26.2246C25.021 34.0404 24.0417 35.0506 24.0417 36.2542C24.0417 37.4578 25.021 38.468 26.2246 38.468H28.8028C29.7791 38.468 30.6077 37.8218 30.8859 36.9362C33.9978 35.8841 36.3979 33.456 37.4369 30.4392C38.8393 30.0989 39.7428 29.2291 39.7428 28.1583ZM13.9765 41.0238C15.6091 42.6565 15.609 45.313 13.9765 46.9454C13.1601 47.7617 12.0879 48.1699 11.0156 48.1699C9.94345 48.1699 8.87118 47.7617 8.05491 46.9456C6.42235 45.313 6.42222 42.6566 8.05477 41.0239C8.05477 41.0239 8.05477 41.0239 8.05491 41.0239C9.68733 39.3915 12.3437 39.3912 13.9765 41.0238ZM12.2687 42.7315C11.5775 42.0404 10.4533 42.0405 9.76219 42.7315H9.76233C9.07136 43.4224 9.07136 44.5469 9.76233 45.2379C10.4532 45.9288 11.5778 45.9287 12.2687 45.2379C12.9598 44.5469 12.9598 43.4226 12.2687 42.7315ZM4.18738 31.6875C1.87849 31.6875 0 29.809 0 27.5001C0 25.1913 1.87849 23.3128 4.18738 23.3128C6.49628 23.3128 8.37476 25.1912 8.37476 27.5001C8.37476 29.809 6.49628 31.6875 4.18738 31.6875ZM5.95974 27.5001C5.95974 26.5228 5.16466 25.7278 4.18738 25.7278C3.2101 25.7278 2.41502 26.5228 2.41502 27.5001C2.41502 28.4774 3.2101 29.2724 4.18738 29.2724C5.16466 29.2724 5.95974 28.4774 5.95974 27.5001ZM15.3522 37.9404L15.2811 38.0115C14.8095 38.4831 14.8095 39.2476 15.2811 39.7192C15.5169 39.955 15.8259 40.0729 16.1349 40.0729C16.4439 40.0729 16.7529 39.955 16.9887 39.7192L17.0599 39.6481C17.5315 39.1765 17.5315 38.412 17.0599 37.9404C16.5883 37.4688 15.8238 37.4688 15.3522 37.9404ZM28.7411 43.573V43.4723C28.7411 42.8054 28.2005 42.2648 27.5335 42.2648C26.8666 42.2648 26.326 42.8054 26.326 43.4723V43.573C26.326 44.2399 26.8666 44.7805 27.5335 44.7805C28.2005 44.7805 28.7411 44.2399 28.7411 43.573Z" fill="#11273F"/>
</svg>
